<?xml version="1.0" encoding="utf-8"?>
<!-- Generator: Adobe Illustrator 19.2.1, SVG Export Plug-In . SVG Version: 6.00 Build 0)  -->
<svg version="1.1" xmlns="http://www.w3.org/2000/svg" xmlns:xlink="http://www.w3.org/1999/xlink" x="0px" y="0px"
	 viewBox="0 0 869 499" style="enable-background:new 0 0 869 499;" xml:space="preserve">
<style type="text/css">
	.st0{display:none;}
	.st1{display:inline;opacity:0.24;fill:none;stroke:#77998F;stroke-miterlimit:10;}
	.st2{fill:#77998F;}
	.st3{fill:none;stroke:#000000;stroke-width:4;stroke-miterlimit:10;}
	.st4{opacity:0.5;fill:#77998F;}
	.st5{fill:none;stroke:#77998F;stroke-width:4;stroke-miterlimit:10;}
	.st6{fill:#FCFCFC;}
	.st7{fill:none;stroke:#77998F;stroke-miterlimit:10;}
	.st8{fill:#FAFAFA;stroke:#000000;stroke-width:2;stroke-miterlimit:10;}
	.st9{opacity:0.5;fill:#DCE4E2;}
	.st10{fill:#FAFAFA;}
	.st11{fill:#FAFAFA;stroke:#000000;stroke-miterlimit:10;}
</style>
<g id="Layer_1" class="st0">
	
		<image style="display:inline;overflow:visible;opacity:0.5;" width="2040" height="1426" xlink:href="../../Desktop/Screen Shot 2017-05-01 at 9.09.22 PM.png"  transform="matrix(0.4735 0 0 0.4735 -18.0003 -636.1904)">
	</image>
</g>
<g id="Layer_3" class="st0">
</g>
<g id="Layer_2">
	<path class="st2" d="M869.1,203.3l-235.3-14l-112.1-10.6l66.2-56.6l0.1-0.1l51.3-56.6l86.8-63.9l-2.4-3.2l-87,64l-0.2,0.1
		l-51.4,56.7l-68.3,58.4l-1.3,0.6l-9.1-0.9l-88.7-6.7l-78-5.9l-154.1-12.8l430-150l-1.3-3.8L93.7,179.7L31.9-0.6l-3.8,1.3L90,181
		l-90.6,31.6l1.3,3.8l90.6-31.6l53.8,156.9L169.8,463l-67.7,34.2l1.8,3.6l68-34.4l60.6,38.5l2.1-3.4l-58.6-37.2l109.8-55.5l0.3-0.2
		l40.4-46.4L433,449.5l-37.6,49.3l3.2,2.4l37.5-49.2l61.6,50.6l2.5-3.1l-61.8-50.6l47.2-61.9l163.1,127.4l2.5-3.2L380.8,299.9
		l48.7-65.8l26.3-22.1l263.6,207.2l-59.6,78.6l3.2,2.4l59.6-78.6l104.3,81.9l0.6-0.8l-104.3-82l56-73.9l56.2,152.7l3.8-1.4
		L728.9,199l140,8.3L869.1,203.3z M506.2,181.3l1.8,0.2l-45.7,19.8l-9,7.5L409,173.9l8.5,0.7L506.2,181.3z M283.7,405.4l-110.3,55.7
		l-24.6-120.5L95,183.5l81.4-28.4l141.8,11.8l49.3,142.4L283.7,405.4z M435.4,446.3l-106.1-87l49-56.2l104.3,81.4L435.4,446.3z
		 M426.7,231.1l-0.2,0.2L376.4,299l-8.2,9.5l-49-141.5l20.3,1.7l67.7,5.1l45.3,35.6L426.7,231.1z M777.4,342.5L720,418.4
		L456.5,211.3l7.9-6.6l51.8-22.4l117.3,11l95.3,5.7l-4.7-1.3L777.4,342.5z"/>
	<circle cx="347.1" cy="270.2" r="6.1"/>
	<polygon class="st9" points="454.5,323.5 473,300.2 518,336.9 500.1,360.2 	"/>
	<polygon class="st9" points="300.5,491 334.7,516.7 368.6,470.6 335.2,445.7 	"/>
	<polygon class="st9" points="492,239.8 535.7,183.3 571.1,185.4 617.7,222 584.3,265.8 613,289 590.8,317.5 	"/>
	<g>
		<g>
			<path d="M446.8,179.8c-1.4,0-2.5-0.4-3.2-1.2c-0.6-0.7-1-1.7-1-3.2c0-1.5,0.3-2.5,1.1-3.3c0.7-0.8,1.8-1.2,3.1-1.2
				c1.2,0,2.2,0.4,3,1c0.5,0.5,0.7,0.9,0.9,1.6l0.1,0.3h-2.6l-0.1-0.2c-0.1-0.4-0.4-0.7-1.2-0.7c-0.7,0-1.2,0.2-1.5,0.7
				c-0.1,0.1-0.1,0.3-0.2,0.6c0.5-0.3,1.1-0.4,1.9-0.4c0.9,0,1.7,0.2,2.4,0.6c0.9,0.5,1.4,1.3,1.4,2.3
				C450.9,178.6,449.3,179.8,446.8,179.8z M446.8,175.7c-0.7,0-1.5,0.2-1.5,1c0,0.3,0,1.1,1.6,1.1c0.7,0,1.5-0.2,1.5-1
				S447.5,175.7,446.8,175.7z"/>
			<path class="st10" d="M446.9,171.1c1.1,0,2.1,0.3,2.8,1c0.5,0.4,0.6,0.8,0.8,1.5h-2.1c-0.2-0.6-0.6-0.9-1.5-0.9
				c-0.8,0-1.4,0.3-1.7,0.8c-0.2,0.3-0.2,0.6-0.3,1.2c0.6-0.5,1.3-0.6,2.2-0.6c0.9,0,1.6,0.2,2.3,0.6c0.8,0.5,1.2,1.2,1.2,2.1
				c0,1.8-1.5,2.9-3.8,2.9c-1.3,0-2.3-0.4-3-1.1c-0.6-0.6-0.9-1.6-0.9-3c0-1.4,0.3-2.4,1-3.2C444.6,171.5,445.6,171.1,446.9,171.1
				 M446.8,178c1.2,0,1.8-0.5,1.8-1.3c0-0.8-0.6-1.3-1.8-1.3c-1.2,0-1.8,0.5-1.8,1.3C445,177.6,445.6,178,446.8,178 M446.9,170.6
				c-1.4,0-2.6,0.5-3.3,1.3c-0.8,0.8-1.1,2-1.1,3.5c0,1.5,0.3,2.6,1,3.3c0.8,0.8,1.9,1.3,3.4,1.3c2.6,0,4.3-1.3,4.3-3.4
				c0-1.1-0.5-2-1.5-2.5c0,0,0,0,0,0h0.9h0.6l-0.1-0.6c-0.2-0.8-0.4-1.2-1-1.7C449.2,171,448.1,170.6,446.9,170.6L446.9,170.6z
				 M445.6,173.7c0.2-0.3,0.7-0.5,1.3-0.5c0.6,0,0.8,0.1,0.9,0.4c-0.2,0-0.4,0-0.7,0C446.6,173.5,446.1,173.5,445.6,173.7
				L445.6,173.7z M446.8,177.5c-1.3,0-1.3-0.6-1.3-0.8c0-0.5,0.4-0.8,1.3-0.8c1.3,0,1.3,0.6,1.3,0.8S448.1,177.5,446.8,177.5
				L446.8,177.5z"/>
		</g>
		<g>
			<path d="M456.1,179.8c-1.4,0-2.5-0.4-3.2-1.1c-0.5-0.5-0.7-1-0.7-2.1l0-0.3h2.5l0,0.2c0,0.8,0.4,1.2,1.3,1.2
				c0.4,0,1.3-0.1,1.3-0.9c0-0.2-0.1-0.4-0.2-0.5c-0.1-0.1-0.3-0.1-0.9-0.1h-1.2v-2h1.1c0.5,0,0.6,0,0.7-0.1
				c0.1-0.1,0.2-0.3,0.2-0.5c0-0.4-0.1-0.7-1-0.7c-0.8,0-1.2,0.3-1.3,1.1l0,0.2h-2.5l0-0.3c0-0.9,0.3-1.4,0.8-2
				c0.7-0.7,1.7-1.1,3-1.1c2.1,0,3.5,1,3.5,2.6c0,0.5-0.1,0.9-0.4,1.2c-0.1,0.1-0.2,0.2-0.3,0.3c0.7,0.4,1,1,1,1.8
				C460,178.6,458.4,179.8,456.1,179.8z"/>
			<path class="st10" d="M456.1,171.1c2,0,3.3,0.9,3.3,2.3c0,0.4-0.1,0.8-0.3,1c-0.2,0.2-0.3,0.3-0.7,0.5c1,0.3,1.4,0.9,1.4,1.8
				c0,1.7-1.4,2.7-3.6,2.7c-1.3,0-2.4-0.4-3-1.1c-0.4-0.5-0.6-1-0.6-1.9h2c0,1,0.5,1.4,1.6,1.4c1,0,1.6-0.4,1.6-1.2
				c0-0.3-0.1-0.6-0.3-0.7c-0.2-0.1-0.4-0.2-1-0.2h-1v-1.5h0.9c0.5,0,0.7,0,0.8-0.2c0.2-0.1,0.3-0.4,0.3-0.7c0-0.6-0.4-1-1.2-1
				c-0.9,0-1.4,0.4-1.5,1.3h-2c0-0.8,0.2-1.3,0.7-1.8C453.9,171.5,454.9,171.1,456.1,171.1 M456.1,170.6c-1.4,0-2.4,0.4-3.2,1.2
				c-0.6,0.6-0.8,1.2-0.8,2.2l0,0.5h0.5h2h0.2v0v1.5v0.1h-0.4h-2h-0.5l0,0.5c0,0.9,0.2,1.6,0.8,2.2c0.7,0.8,1.9,1.2,3.4,1.2
				c2.4,0,4.1-1.3,4.1-3.2c0-0.8-0.3-1.4-0.9-1.9c0,0,0.1-0.1,0.1-0.2c0.3-0.3,0.4-0.8,0.4-1.3C459.9,171.7,458.4,170.6,456.1,170.6
				L456.1,170.6z M455.1,174c0.1-0.6,0.3-0.8,1-0.8c0.7,0,0.7,0.2,0.7,0.5c0,0.2-0.1,0.3-0.1,0.3c0,0-0.1,0-0.5,0h-0.9H455.1
				L455.1,174z M455,176.5h0.4h1c0.5,0,0.6,0,0.7,0.1c0,0,0.1,0.1,0.1,0.3c0,0.6-0.7,0.7-1.1,0.7C455.2,177.5,455,177.2,455,176.5
				L455,176.5L455,176.5z"/>
		</g>
		<g>
			<polygon points="473.3,179.6 471.4,174.5 469.5,179.6 467.1,179.6 464.1,171.1 466.7,171.1 468.4,176.1 470.2,171.1 472.7,171.1 
				474.5,176.1 476.2,171.1 478.7,171.1 475.6,179.6 			"/>
			<path class="st10" d="M478.3,171.3l-2.9,8h-2l-2-5.6l-2.1,5.6h-2l-2.9-8h2.1l1.9,5.6l2-5.6h2.1l2,5.6l1.9-5.6H478.3 M479,170.8
				h-0.7h-1.9h-0.4l-0.1,0.3l-1.5,4.2l-1.5-4.2l-0.1-0.3h-0.4h-2.1h-0.4l-0.1,0.3l-1.5,4.2l-1.4-4.2l-0.1-0.3h-0.4h-2.1h-0.7
				l0.2,0.7l2.9,8l0.1,0.3h0.4h2h0.3l0.1-0.3l1.6-4.3l1.6,4.3l0.1,0.3h0.4h2h0.3l0.1-0.3l2.9-8L479,170.8L479,170.8z"/>
		</g>
		<g>
			<path d="M482.5,179.8c-2.5,0-4.2-1.4-4.2-3.5c0-2,1.7-3.4,4.1-3.4c2.5,0,4.1,1.4,4.1,3.5S485,179.8,482.5,179.8z M482.5,174.7
				c-1.1,0-1.7,0.6-1.7,1.7c0,1.1,0.6,1.7,1.7,1.7c1.1,0,1.7-0.6,1.7-1.7C484.2,175.3,483.6,174.7,482.5,174.7z"/>
			<path class="st10" d="M482.5,173.1c2.3,0,3.9,1.3,3.9,3.2c0,1.9-1.5,3.2-3.9,3.2c-2.4,0-3.9-1.3-3.9-3.3
				C478.6,174.4,480.2,173.1,482.5,173.1 M482.5,178.3c1.2,0,2-0.8,2-1.9c0-1.2-0.8-2-2-2c-1.2,0-2,0.8-2,2
				C480.5,177.6,481.3,178.3,482.5,178.3 M482.5,172.6c-2.6,0-4.4,1.5-4.4,3.7c0,2.3,1.7,3.8,4.4,3.8c2.6,0,4.4-1.5,4.4-3.7
				C486.9,174.1,485.1,172.6,482.5,172.6L482.5,172.6z M482.5,177.8c-0.9,0-1.5-0.5-1.5-1.4c0-0.9,0.5-1.5,1.5-1.5
				c0.9,0,1.5,0.5,1.5,1.5C484,177.3,483.4,177.8,482.5,177.8L482.5,177.8z"/>
		</g>
		<g>
			<path d="M491.5,179.8c-2.5,0-4.2-1.4-4.2-3.5c0-2,1.7-3.4,4.1-3.4c2.5,0,4.1,1.4,4.1,3.5S494,179.8,491.5,179.8z M491.5,174.7
				c-1.1,0-1.7,0.6-1.7,1.7c0,1.1,0.6,1.7,1.7,1.7c1.1,0,1.7-0.6,1.7-1.7C493.2,175.3,492.6,174.7,491.5,174.7z"/>
			<path class="st10" d="M491.5,173.1c2.3,0,3.9,1.3,3.9,3.2c0,1.9-1.5,3.2-3.9,3.2c-2.4,0-3.9-1.3-3.9-3.3
				C487.6,174.4,489.2,173.1,491.5,173.1 M491.5,178.3c1.2,0,2-0.8,2-1.9c0-1.2-0.8-2-2-2c-1.2,0-2,0.8-2,2
				C489.5,177.6,490.3,178.3,491.5,178.3 M491.5,172.6c-2.6,0-4.4,1.5-4.4,3.7c0,2.3,1.7,3.8,4.4,3.8c2.6,0,4.4-1.5,4.4-3.7
				C495.9,174.1,494.1,172.6,491.5,172.6L491.5,172.6z M491.5,177.8c-0.9,0-1.5-0.5-1.5-1.4c0-0.9,0.5-1.5,1.5-1.5
				c0.9,0,1.5,0.5,1.5,1.5C493,177.3,492.4,177.8,491.5,177.8L491.5,177.8z"/>
		</g>
		<g>
			<path d="M499.9,179.8c-2.1,0-3.5-1.5-3.5-3.5c0-2,1.5-3.4,3.5-3.4c0.8,0,1.4,0.2,2,0.6v-2.5h2.3v8.5h-2.3v-0.4
				C501.3,179.6,500.7,179.8,499.9,179.8z M500.3,174.8c-0.9,0-1.6,0.6-1.6,1.6c0,0.9,0.6,1.6,1.6,1.6c1,0,1.7-0.6,1.7-1.5
				C501.9,175.5,501.3,174.8,500.3,174.8z"/>
			<path class="st10" d="M504,171.3v8h-1.8v-0.7c-0.7,0.7-1.3,0.9-2.3,0.9c-1.9,0-3.3-1.3-3.3-3.2c0-1.8,1.4-3.1,3.3-3.1
				c1,0,1.6,0.3,2.3,0.9v-2.8H504 M500.3,178.2c1.1,0,1.9-0.8,1.9-1.8c0-1.1-0.8-1.8-1.9-1.8c-1.1,0-1.8,0.7-1.8,1.8
				S499.2,178.2,500.3,178.2 M504.5,170.8H504h-1.8h-0.5v0.5v1.8c-0.5-0.3-1.1-0.4-1.8-0.4c-2.2,0-3.8,1.5-3.8,3.6
				c0,2.2,1.6,3.7,3.8,3.7c0.7,0,1.2-0.1,1.8-0.4v0.2h0.5h1.8h0.5v-0.5v-8V170.8L504.5,170.8z M500.3,177.7c-0.8,0-1.3-0.5-1.3-1.3
				c0-0.8,0.5-1.3,1.3-1.3c0.9,0,1.4,0.5,1.4,1.3C501.7,177.2,501.1,177.7,500.3,177.7L500.3,177.7z"/>
		</g>
		<g>
			<polygon points="512.1,179.6 510.8,176.5 509.4,179.6 507.4,179.6 504.6,173.1 507.2,173.1 508.5,176.4 509.7,173.1 511.9,173.1 
				513.1,176.4 514.4,173.1 516.9,173.1 514.2,179.6 			"/>
			<path class="st10" d="M516.5,173.4l-2.5,6h-1.8l-1.5-3.5l-1.5,3.5h-1.8l-2.6-6h2.1l1.4,3.8l1.5-3.8h1.8l1.4,3.8l1.5-3.8H516.5
				 M517.2,172.9h-0.8h-1.9h-0.3l-0.1,0.3l-1,2.5l-1-2.5l-0.1-0.3h-0.3h-1.8h-0.3l-0.1,0.3l-1,2.5l-1-2.5l-0.1-0.3H507H505h-0.8
				l0.3,0.7l2.6,6l0.1,0.3h0.3h1.8h0.3l0.1-0.3l1-2.4l1,2.4l0.1,0.3h0.3h1.8h0.3l0.1-0.3l2.5-6L517.2,172.9L517.2,172.9z"/>
		</g>
		<g>
			<path d="M519.4,179.8c-1.6,0-2.7-0.8-2.7-2.1c0-0.9,0.5-1.5,1.2-1.8c0.5-0.2,0.6-0.2,2.4-0.4c1.2-0.1,1.3-0.2,1.3-0.4
				c0-0.3-0.4-0.4-1-0.4c-0.4,0-0.7,0.1-0.9,0.2c-0.1,0.1-0.2,0.1-0.2,0.5l0,0.2h-2.4l0-0.3c0-0.7,0.3-1.2,0.9-1.7
				c0.6-0.5,1.5-0.7,2.6-0.7c1.2,0,2.2,0.3,2.7,0.7c0.5,0.4,0.7,0.9,0.7,2v2.5c0,0.6,0,0.8,0.1,0.9l0.1,0.1v0.5H522l-0.1-0.5
				C521.2,179.6,520.4,179.8,519.4,179.8z M521.7,176.8c-0.2,0.1-0.5,0.1-1.3,0.2c-0.5,0.1-0.7,0.1-0.9,0.2
				c-0.2,0.1-0.3,0.2-0.3,0.4c0,0.4,0.6,0.4,0.8,0.4c0.5,0,1.1-0.2,1.5-0.5C521.6,177.4,521.7,177.2,521.7,176.8z"/>
			<path class="st10" d="M520.6,173.1c1.1,0,2,0.3,2.6,0.7c0.5,0.4,0.6,0.8,0.6,1.8v2.5c0,0.6,0,0.9,0.2,1.1v0.2h-1.8l-0.2-0.7
				c-0.7,0.6-1.5,0.9-2.6,0.9c-1.5,0-2.4-0.7-2.4-1.8c0-0.8,0.4-1.3,1.1-1.6c0.5-0.2,0.5-0.2,2.4-0.4c1.2-0.1,1.5-0.3,1.5-0.6
				c0-0.4-0.5-0.7-1.3-0.7c-0.5,0-0.8,0.1-1.1,0.3c-0.2,0.1-0.3,0.3-0.3,0.7h-1.9c0-0.7,0.3-1.1,0.8-1.5
				C518.8,173.4,519.6,173.1,520.6,173.1 M520,178.3c0.6,0,1.2-0.2,1.6-0.6c0.3-0.2,0.4-0.5,0.4-1v-0.3c-0.4,0.2-0.4,0.2-1.6,0.4
				c-0.5,0.1-0.8,0.1-1,0.2c-0.3,0.1-0.4,0.3-0.4,0.6C518.9,178,519.3,178.3,520,178.3 M520.6,172.6c-1.2,0-2.1,0.3-2.8,0.8
				c-0.7,0.5-0.9,1-1,1.9l0,0.5h0.5h0.2c-0.7,0.4-1.1,1.1-1.1,1.9c0,1.4,1.1,2.3,2.9,2.3c0.9,0,1.6-0.2,2.2-0.6l0.1,0.3h0.4h1.8h0.5
				v-0.5v-0.2V179l-0.1-0.1c-0.1-0.1-0.1-0.5-0.1-0.7v-2.5c0-1-0.1-1.6-0.8-2.2C522.9,172.9,521.9,172.6,520.6,172.6L520.6,172.6z
				 M519.8,175.3c0-0.2,0.1-0.2,0.1-0.2c0.2-0.1,0.5-0.2,0.8-0.2c0.4,0,0.6,0.1,0.7,0.1c-0.1,0-0.4,0.1-1,0.2
				C520.2,175.2,520,175.3,519.8,175.3L519.8,175.3z M520,177.8c-0.3,0-0.5-0.1-0.5-0.2c0,0,0-0.1,0.1-0.1c0.2-0.1,0.4-0.1,0.9-0.2
				c0.5-0.1,0.8-0.1,1-0.1c0,0.1-0.1,0.2-0.1,0.2C520.9,177.6,520.4,177.8,520,177.8L520,177.8z"/>
		</g>
		<g>
			<path d="M525.3,179.6v-6.5h2.3v0.5c0.4-0.5,1-0.6,1.9-0.6h0.4v2.3l-0.3-0.1c-0.2,0-0.3-0.1-0.5-0.1c-0.4,0-0.8,0.1-1.1,0.3
				c-0.3,0.2-0.4,0.4-0.4,1.1v3.1H525.3z"/>
			<path class="st10" d="M529.7,173.2v1.7c-0.2,0-0.4-0.1-0.5-0.1c-0.5,0-0.9,0.1-1.2,0.3c-0.4,0.3-0.5,0.6-0.5,1.3v2.8h-1.8v-6h1.8
				v1c0.5-0.9,1-1.2,2.1-1.2H529.7 M530.2,172.7h-0.5h-0.2c-0.7,0-1.2,0.1-1.6,0.4v-0.2h-0.5h-1.8h-0.5v0.5v6v0.5h0.5h1.8h0.5v-0.5
				v-2.8c0-0.6,0.1-0.8,0.3-0.9c0.2-0.1,0.6-0.2,0.9-0.2c0.1,0,0.2,0,0.4,0l0.6,0.1v-0.6v-1.7V172.7L530.2,172.7z"/>
		</g>
		<g>
			<path d="M533.9,179.8c-2.1,0-3.5-1.5-3.5-3.5c0-2,1.5-3.4,3.5-3.4c0.8,0,1.4,0.2,2,0.6v-2.5h2.3v8.5h-2.3v-0.4
				C535.3,179.6,534.7,179.8,533.9,179.8z M534.3,174.8c-0.9,0-1.6,0.6-1.6,1.6c0,0.9,0.6,1.6,1.6,1.6c1,0,1.7-0.6,1.7-1.5
				C535.9,175.5,535.3,174.8,534.3,174.8z"/>
			<path class="st10" d="M538,171.3v8h-1.8v-0.7c-0.7,0.7-1.3,0.9-2.3,0.9c-1.9,0-3.3-1.3-3.3-3.2c0-1.8,1.4-3.1,3.3-3.1
				c1,0,1.6,0.3,2.3,0.9v-2.8H538 M534.3,178.2c1.1,0,1.9-0.8,1.9-1.8c0-1.1-0.8-1.8-1.9-1.8c-1.1,0-1.8,0.7-1.8,1.8
				S533.2,178.2,534.3,178.2 M538.5,170.8H538h-1.8h-0.5v0.5v1.8c-0.5-0.3-1.1-0.4-1.8-0.4c-2.2,0-3.8,1.5-3.8,3.6
				c0,2.2,1.6,3.7,3.8,3.7c0.7,0,1.2-0.1,1.8-0.4v0.2h0.5h1.8h0.5v-0.5v-8V170.8L538.5,170.8z M534.3,177.7c-0.8,0-1.3-0.5-1.3-1.3
				c0-0.8,0.5-1.3,1.3-1.3c0.9,0,1.4,0.5,1.4,1.3C535.7,177.2,535.1,177.7,534.3,177.7L534.3,177.7z"/>
		</g>
		<g>
			<path d="M549.8,179.6l-0.9-1.8h-3.4l-0.8,1.8h-2.6l4.1-8.5h2.1l4.2,8.5H549.8z M548,175.9l-0.8-1.8l-0.8,1.8H548z"/>
			<path class="st10" d="M548.2,171.3l3.9,8h-2.2l-0.9-1.8h-3.7l-0.8,1.8h-2l3.8-8H548.2 M546,176.1h2.4l-1.2-2.7L546,176.1
				 M548.5,170.8h-0.3h-1.8H546l-0.1,0.3l-3.8,8l-0.3,0.7h0.8h2h0.3l0.1-0.3l0.7-1.5h3.1l0.7,1.5l0.1,0.3h0.3h2.2h0.8l-0.4-0.7
				l-3.9-8L548.5,170.8L548.5,170.8z M546.8,175.6l0.4-1l0.4,1H546.8L546.8,175.6z"/>
		</g>
		<g>
			<polygon points="554.7,179.6 551.5,173.1 554.1,173.1 555.7,176.7 557.4,173.1 559.9,173.1 556.7,179.6 			"/>
			<path class="st10" d="M559.5,173.4l-3,6h-1.7l-3-6h2.1l1.8,3.9l1.8-3.9H559.5 M560.3,172.9h-0.8h-2h-0.3l-0.1,0.3l-1.3,2.9
				l-1.3-2.9l-0.1-0.3H554h-2.1h-0.8l0.4,0.7l3,6l0.1,0.3h0.3h1.7h0.3l0.1-0.3l3-6L560.3,172.9L560.3,172.9z"/>
		</g>
		<g>
			<path d="M563.6,179.8c-2.4,0-3.9-1.3-3.9-3.4c0-2.1,1.5-3.5,3.9-3.5c2.4,0,4,1.4,4,3.6v0.5h-5.4c0,0.3,0.1,0.4,0.2,0.5
				c0.3,0.3,0.7,0.5,1.3,0.5c0.7,0,1-0.2,1.3-0.7l0.1-0.1h2.6l-0.2,0.4C566.8,179.1,565.5,179.8,563.6,179.8z M565,175.4
				c-0.2-0.5-0.7-0.8-1.3-0.8c-0.5,0-1.1,0.1-1.3,0.8H565z"/>
			<path class="st10" d="M563.6,173.1c2.3,0,3.7,1.3,3.7,3.4v0.3h-5.4c0,0.5,0.1,0.7,0.3,0.9c0.3,0.4,0.8,0.6,1.5,0.6
				c0.7,0,1.1-0.2,1.5-0.8h2.1c-0.7,1.4-1.8,2.1-3.6,2.1c-2.3,0-3.6-1.2-3.6-3.2C560,174.4,561.4,173.1,563.6,173.1 M562,175.7h3.3
				c-0.1-0.8-0.8-1.3-1.7-1.3C562.7,174.4,562.1,174.8,562,175.7 M563.6,172.6c-2.5,0-4.1,1.5-4.1,3.8c0,2.3,1.6,3.7,4.1,3.7
				c2,0,3.3-0.8,4.1-2.3l0.3-0.7h-0.2v-0.2v-0.3C567.8,174.2,566.2,172.6,563.6,172.6L563.6,172.6z M562.8,175.2
				c0.2-0.1,0.4-0.3,0.9-0.3c0.2,0,0.6,0,0.8,0.3H562.8L562.8,175.2z M562.5,177.3h2.2c-0.3,0.4-0.5,0.5-1.1,0.5
				c-0.7,0-0.9-0.2-1.1-0.4C562.6,177.4,562.5,177.3,562.5,177.3L562.5,177.3z"/>
		</g>
		<g>
			<path d="M573.3,179.6V176c0-0.5-0.1-0.7-0.2-0.8c-0.2-0.2-0.5-0.3-0.9-0.3c-0.5,0-1,0.2-1.2,0.6c-0.1,0.2-0.2,0.4-0.2,0.9v3.2
				h-2.3v-6.5h2.3v0.6c0.1-0.1,0.2-0.2,0.3-0.3c0.4-0.3,1.1-0.5,1.7-0.5c1,0,1.9,0.4,2.3,1c0.3,0.4,0.3,0.8,0.3,1.6v4H573.3z"/>
			<path class="st10" d="M573,173.2c0.9,0,1.7,0.3,2.1,0.9c0.2,0.3,0.3,0.6,0.3,1.5v3.7h-1.8V176c0-0.5-0.1-0.8-0.3-1
				c-0.2-0.3-0.6-0.4-1.1-0.4c-0.6,0-1.2,0.3-1.4,0.7c-0.1,0.3-0.2,0.5-0.2,1v3h-1.8v-6h1.8v1c0.3-0.4,0.5-0.6,0.7-0.7
				C571.8,173.3,572.4,173.2,573,173.2 M573,172.7c-0.7,0-1.3,0.2-1.8,0.5v-0.3h-0.5h-1.8h-0.5v0.5v6v0.5h0.5h1.8h0.5v-0.5v-3
				c0-0.4,0-0.6,0.1-0.7c0.2-0.3,0.5-0.5,1-0.5c0.3,0,0.6,0.1,0.7,0.2c0.1,0.1,0.1,0.2,0.1,0.6v3.3v0.5h0.5h1.8h0.5v-0.5v-3.7
				c0-0.9-0.1-1.3-0.4-1.8C575,173.1,574.1,172.7,573,172.7L573,172.7z"/>
		</g>
		<g>
			<path d="M579.6,179.7c-1,0-1.9-0.4-2.3-1c-0.3-0.4-0.3-0.7-0.3-1.6v-4h2.3v3.6c0,0.5,0.1,0.7,0.2,0.8c0.2,0.2,0.5,0.3,0.9,0.3
				c0.4,0,0.9-0.2,1.1-0.4c0.2-0.2,0.3-0.5,0.3-1v-3.2h2.3v6.5h-2.3V179c-0.1,0.1-0.2,0.2-0.3,0.3
				C580.9,179.6,580.3,179.7,579.6,179.7z"/>
			<path class="st10" d="M583.8,173.4v6h-1.8v-1c-0.3,0.4-0.5,0.6-0.7,0.7c-0.4,0.3-1,0.4-1.6,0.4c-0.9,0-1.7-0.3-2.1-0.9
				c-0.3-0.4-0.3-0.6-0.3-1.5v-3.7h1.8v3.3c0,0.5,0.1,0.7,0.2,1c0.2,0.3,0.6,0.4,1.1,0.4c0.5,0,1-0.2,1.3-0.5
				c0.3-0.3,0.3-0.6,0.3-1.2v-3H583.8 M584.3,172.9h-0.5h-1.8h-0.5v0.5v3c0,0.5-0.1,0.7-0.2,0.8c-0.2,0.2-0.5,0.4-0.9,0.4
				c-0.3,0-0.6-0.1-0.7-0.2c-0.1-0.1-0.1-0.2-0.1-0.6v-3.3v-0.5H579h-1.8h-0.5v0.5v3.7c0,0.9,0.1,1.3,0.4,1.8
				c0.5,0.7,1.4,1.1,2.5,1.1c0.7,0,1.3-0.2,1.8-0.5v0.3h0.5h1.8h0.5v-0.5v-6V172.9L584.3,172.9z"/>
		</g>
		<g>
			<path d="M588.9,179.8c-2.4,0-3.9-1.3-3.9-3.4c0-2.1,1.5-3.5,3.9-3.5c2.4,0,4,1.4,4,3.6v0.5h-5.4c0,0.3,0.1,0.4,0.2,0.5
				c0.3,0.3,0.7,0.5,1.3,0.5c0.7,0,1-0.2,1.3-0.7l0.1-0.1h2.6l-0.2,0.4C592.1,179.1,590.8,179.8,588.9,179.8z M590.3,175.4
				c-0.2-0.5-0.7-0.8-1.3-0.8c-0.5,0-1.1,0.1-1.3,0.8H590.3z"/>
			<path class="st10" d="M588.9,173.1c2.3,0,3.7,1.3,3.7,3.4v0.3h-5.4c0,0.5,0.1,0.7,0.3,0.9c0.3,0.4,0.8,0.6,1.5,0.6
				c0.7,0,1.1-0.2,1.5-0.8h2.1c-0.7,1.4-1.8,2.1-3.6,2.1c-2.3,0-3.6-1.2-3.6-3.2C585.2,174.4,586.6,173.1,588.9,173.1 M587.3,175.7
				h3.3c-0.1-0.8-0.8-1.3-1.7-1.3C588,174.4,587.4,174.8,587.3,175.7 M588.9,172.6c-2.5,0-4.1,1.5-4.1,3.8c0,2.3,1.6,3.7,4.1,3.7
				c2,0,3.3-0.8,4.1-2.3l0.3-0.7h-0.2v-0.2v-0.3C593.1,174.2,591.4,172.6,588.9,172.6L588.9,172.6z M588.1,175.2
				c0.2-0.1,0.4-0.3,0.9-0.3c0.2,0,0.6,0,0.8,0.3H588.1L588.1,175.2z M587.8,177.3h2.2c-0.3,0.4-0.5,0.5-1.1,0.5
				c-0.7,0-0.9-0.2-1.1-0.4C587.8,177.4,587.8,177.3,587.8,177.3L587.8,177.3z"/>
		</g>
	</g>
	<g>
		<g>
			<path class="st2" d="M485.2,250.9l5.4-4.1l1,0.8l-2.6,6.2l5.3-4.1l0.9,0.7l-6.7,4.9l-0.8-0.6l2.8-6.7l-5.8,4.4l-0.8-0.6l3.2-7.6
				l0.9,0.7L485.2,250.9z"/>
			<path class="st2" d="M496.8,258c-1.1,1.4-2.7,1.7-4,0.7c-1.3-1-1.5-2.6-0.4-4.1c1.1-1.5,2.7-1.7,4.1-0.7
				C497.8,254.9,497.9,256.6,496.8,258z M493.2,255.2c-0.8,1.1-0.8,2.2,0.1,2.9c0.9,0.7,2,0.4,2.8-0.7c0.8-1.1,0.8-2.2-0.1-2.9
				C495.1,253.8,494,254.1,493.2,255.2z"/>
			<path class="st2" d="M502.1,262.1c-1.1,1.4-2.7,1.7-4,0.7c-1.3-1-1.5-2.6-0.4-4.1c1.1-1.5,2.7-1.7,4.1-0.7
				C503.1,259,503.2,260.6,502.1,262.1z M498.5,259.3c-0.8,1.1-0.8,2.2,0.1,2.9c0.9,0.7,2,0.4,2.8-0.7c0.8-1.1,0.8-2.2-0.1-2.9
				C500.4,257.9,499.3,258.2,498.5,259.3z"/>
			<path class="st2" d="M510.3,261.8l-4.9,6.4l-0.7-0.6l0.5-0.6c-0.8,0.2-1.4,0.1-2.1-0.4c-1.1-0.9-1.2-2.4-0.1-3.9
				c1.1-1.4,2.6-1.8,3.7-0.9c0.6,0.5,0.9,1.1,0.9,1.9l1.9-2.5L510.3,261.8z M503.8,263.3c-0.9,1.1-0.9,2.1-0.1,2.8
				c0.9,0.7,1.9,0.4,2.7-0.7c0.5-0.6,0.7-1.1,0.7-1.6c0-0.5-0.2-1-0.6-1.3C505.7,261.9,504.7,262.2,503.8,263.3z"/>
			<path class="st2" d="M508.7,269.3l3.8-3l0.8,0.6l-1.9,4.4l3.9-2.9l0.8,0.6l-4.9,3.4l-0.8-0.6l1.9-4.4l-3.8,2.9l-0.8-0.6l2-5.6
				l0.8,0.6L508.7,269.3z"/>
			<path class="st2" d="M517.3,277.3c-0.2-0.1-0.3-0.1-0.4-0.2c-0.3-0.2-0.5-0.6-0.4-0.9c0-0.1,0.1-0.2,0.2-0.5
				c-0.8,0.2-1.5,0.1-2.2-0.5c-0.9-0.7-1.2-1.7-0.6-2.4c0.4-0.5,0.9-0.7,1.5-0.6c0.5,0,0.6,0.1,2.2,0.9c0.5,0.3,0.8,0.3,1-0.1
				c0.4-0.6,0.3-1-0.3-1.5c-0.5-0.4-1.1-0.5-1.4-0.4c-0.2,0.1-0.3,0.2-0.5,0.4l-0.7-0.5c0.4-0.4,0.6-0.6,1-0.7
				c0.6-0.2,1.4,0,2.1,0.6c0.7,0.5,1.1,1.1,1.1,1.6c0,0.3-0.1,0.6-0.5,1.1l-1.6,2.1c-0.4,0.5-0.4,0.7-0.1,0.9c0,0,0.1,0.1,0.2,0.1
				L517.3,277.3z M517.9,273.9c-0.3-0.1-0.5-0.1-1-0.4c-0.9-0.4-1.2-0.5-1.6-0.5c-0.2,0-0.5,0.1-0.6,0.3c-0.3,0.4-0.2,1,0.4,1.4
				c0.8,0.6,1.7,0.6,2.2-0.1L517.9,273.9z"/>
			<path class="st2" d="M521.9,274.8c1-0.3,1.6-0.3,2.1,0.1c0.1,0.1,0.2,0.1,0.3,0.3l-0.5,0.7c-0.2-0.2-0.2-0.2-0.3-0.3
				c-0.5-0.3-1.2-0.4-1.7-0.2c-0.4,0.2-0.6,0.4-1.1,1l-1.6,2.1l-0.8-0.6l3.5-4.5l0.7,0.6L521.9,274.8z"/>
			<path class="st2" d="M530.2,277l-4.9,6.4l-0.7-0.6l0.5-0.6c-0.8,0.2-1.4,0.1-2.1-0.4c-1.1-0.9-1.2-2.4-0.1-3.9
				c1.1-1.4,2.6-1.8,3.7-0.9c0.6,0.5,0.9,1.1,0.9,1.9l1.9-2.5L530.2,277z M523.7,278.5c-0.9,1.1-0.9,2.1-0.1,2.8
				c0.9,0.7,1.9,0.4,2.7-0.7c0.5-0.6,0.7-1.1,0.7-1.6c0-0.5-0.2-1-0.6-1.3C525.5,277.1,524.5,277.4,523.7,278.5z"/>
			<path class="st2" d="M529.5,286.6l-0.9-0.7l7.2-4.6l0.9,0.7l-2.5,8.1l-0.9-0.7l0.8-2.4l-2.5-1.9L529.5,286.6z M534.4,286.2
				l1.2-3.7l-3.3,2.2L534.4,286.2z"/>
			<path class="st2" d="M536.9,291l4.1-2.8l0.8,0.6l-5.1,3.3l-0.9-0.7l1.9-5.8l0.8,0.6L536.9,291z"/>
			<path class="st2" d="M541.1,292.1c-0.7,1.1-0.6,2.1,0.3,2.8c0.6,0.5,1.2,0.5,1.9,0l0.8,0.6c-1.1,0.8-2.1,0.8-3.1,0
				c-1.3-1-1.5-2.6-0.4-4.1c1.1-1.5,2.7-1.8,4-0.8c0.9,0.7,1.3,1.7,1,2.7c-0.1,0.5-0.3,0.9-0.8,1.5L541.1,292.1z M544.3,293.7
				c0.6-0.9,0.5-1.9-0.3-2.5c-0.8-0.6-1.7-0.5-2.5,0.4L544.3,293.7z"/>
		</g>
	</g>
	<g>
		<g>
			<path class="st2" d="M321.3,206.7c1-0.5,1.2-1.3,0.8-2.5c-0.4-1-1.1-1.5-1.8-1.2c-0.4,0.1-0.6,0.5-0.6,1c0,0.3,0,0.7,0.1,1.6
				c0.2,1.2,0.2,1.8,0.1,2.2c-0.1,0.7-0.6,1.2-1.3,1.4c-1.4,0.5-2.7-0.2-3.4-2c-0.7-1.8-0.2-3.4,1.4-4.2l0.4,1c-0.5,0.3-0.8,0.6-1,1
				c-0.3,0.6-0.2,1.3,0,2c0.4,1.1,1.3,1.7,2.1,1.4c0.5-0.2,0.7-0.6,0.8-1.3c0-0.4,0-0.7-0.1-1.5c-0.2-1.2-0.2-1.6-0.1-2
				c0.1-0.7,0.5-1.2,1.1-1.4c1.2-0.5,2.4,0.3,3,1.8c0.7,1.7,0.3,2.9-1.2,3.7L321.3,206.7z"/>
			<path class="st2" d="M322.1,213.7c0.3-0.2,0.4-0.3,0.6-0.6c0.2-0.4,0.2-0.9,0.1-1.3c-0.4-1-1.5-1.4-2.7-0.9
				c-1.3,0.5-1.9,1.5-1.5,2.6c0.3,0.8,1.1,1.1,1.9,0.9l0.3,0.9c-1.4,0.4-2.5-0.2-3-1.5c-0.3-0.8-0.3-1.6,0.1-2.2
				c0.4-0.6,1-1.2,1.8-1.5c1.7-0.6,3.2,0,3.8,1.5c0.5,1.3,0.1,2.3-1,3L322.1,213.7z"/>
			<path class="st2" d="M323.9,221.2c-1.7,0.7-3.2,0.1-3.8-1.5c-0.6-1.5,0.1-3,1.8-3.7c1.7-0.7,3.2-0.1,3.8,1.5
				C326.4,219,325.6,220.5,323.9,221.2z M322.3,216.9c-1.3,0.5-1.8,1.5-1.4,2.5c0.4,1,1.5,1.4,2.8,0.9c1.3-0.5,1.8-1.5,1.5-2.5
				C324.7,216.7,323.6,216.4,322.3,216.9z"/>
			<path class="st2" d="M327.9,223.5l-0.7,0.3l-0.4-1.1l-3.3,1.3c-0.6,0.2-0.7,0.4-0.5,0.8c0,0.1,0.1,0.2,0.2,0.3l-0.7,0.3
				c-0.2-0.2-0.2-0.3-0.3-0.5c-0.2-0.4-0.2-0.9,0-1.2c0.1-0.2,0.3-0.4,0.8-0.5l3.5-1.4l-0.3-0.8l0.7-0.3l0.3,0.8l1.7-0.7l0.3,0.9
				l-1.7,0.7L327.9,223.5z"/>
			<path class="st2" d="M329.2,226.7l-0.7,0.3l-0.4-1.1l-3.3,1.3c-0.6,0.2-0.7,0.4-0.5,0.8c0,0.1,0.1,0.2,0.2,0.3l-0.7,0.3
				c-0.2-0.2-0.2-0.3-0.3-0.5c-0.2-0.4-0.2-0.9,0-1.2c0.1-0.2,0.3-0.4,0.8-0.5l3.5-1.4l-0.3-0.8l0.7-0.3l0.3,0.8l1.7-0.7l0.3,0.9
				l-1.7,0.7L329.2,226.7z"/>
			<path class="st2" d="M325.5,233.1l-0.4-1.1l8.5-0.2l0.4,1.1l-6.4,5.6l-0.4-1.1l2-1.7l-1.1-2.9L325.5,233.1z M329.9,235.3l3-2.5
				L329,233L329.9,235.3z"/>
			<path class="st2" d="M329.5,240.7l5-0.3l0.4,0.9l-6.1,0.2l-0.4-1l4.6-4l0.4,0.9L329.5,240.7z"/>
			<path class="st2" d="M332.5,243.9c-1.2,0.6-1.6,1.5-1.2,2.5c0.3,0.7,0.8,1,1.6,1l0.3,0.9c-1.3,0.1-2.2-0.4-2.7-1.7
				c-0.6-1.6,0.1-3,1.8-3.7c1.7-0.7,3.2-0.1,3.8,1.4c0.4,1.1,0.2,2.1-0.6,2.9c-0.3,0.3-0.7,0.6-1.4,0.9L332.5,243.9z M334.4,246.9
				c1-0.5,1.4-1.4,1-2.3c-0.4-0.9-1.2-1.3-2.3-1L334.4,246.9z"/>
		</g>
	</g>
	<g>
		<g>
			<path class="st2" d="M511.2,383.4c0.4-1,0.1-1.8-0.7-2.6c-1.3-1.1-2.8-0.7-4.1,0.9c-1.3,1.6-1.3,3.1,0,4.2
				c1.1,0.9,2.3,0.8,3.2-0.2l0.8,0.6c-1.4,1.4-3.1,1.5-4.6,0.3c-1.8-1.4-1.8-3.5-0.2-5.5c1.6-2,3.8-2.3,5.5-0.9
				c1.3,1.1,1.7,2.6,0.9,3.9L511.2,383.4z"/>
			<path class="st2" d="M512,390.1l4.2-2.5l0.8,0.6l-6,3.4c-0.9,0.5-1.4,0.5-2.1,0c-0.2-0.2-0.4-0.3-0.6-0.7l0.5-0.7
				c0.1,0.3,0.2,0.4,0.4,0.6c0.3,0.3,0.5,0.3,1,0l0.8-0.4l1.7-5.8l0.8,0.6L512,390.1z"/>
			<path class="st2" d="M512.8,394.6l4.8-5.9l0.7,0.6l-0.5,0.6c0.8-0.2,1.4,0,2,0.5c1.1,0.9,1.1,2.5-0.1,3.9
				c-1.1,1.4-2.6,1.7-3.8,0.8c-0.6-0.5-0.9-1.1-0.8-1.9l-1.7,2.1L512.8,394.6z M517.8,390.5c-0.4,0.1-0.8,0.4-1.2,0.9
				c-0.5,0.6-0.7,1.1-0.7,1.6c0,0.5,0.2,1,0.6,1.3c0.8,0.7,1.8,0.4,2.7-0.7c0.9-1.1,1-2.1,0.2-2.8
				C518.9,390.5,518.4,390.4,517.8,390.5z"/>
			<path class="st2" d="M522.9,394.3c1-0.3,1.6-0.2,2.1,0.2c0.1,0.1,0.2,0.2,0.3,0.3l-0.6,0.7c-0.1-0.2-0.2-0.3-0.3-0.3
				c-0.4-0.4-1.2-0.5-1.7-0.2c-0.4,0.2-0.6,0.4-1.1,1L520,398l-0.8-0.6l3.6-4.4l0.7,0.6L522.9,394.3z"/>
			<path class="st2" d="M524.4,398.2c-0.7,1.1-0.7,2.1,0.2,2.8c0.6,0.5,1.2,0.5,1.9,0.1l0.7,0.6c-1.1,0.7-2.1,0.7-3.1-0.1
				c-1.3-1.1-1.4-2.7-0.3-4.1c1.2-1.4,2.8-1.7,4-0.7c0.9,0.7,1.2,1.7,0.9,2.8c-0.1,0.4-0.4,0.9-0.8,1.5L524.4,398.2z M527.6,399.9
				c0.6-0.9,0.5-1.9-0.2-2.5c-0.8-0.6-1.7-0.5-2.5,0.3L527.6,399.9z"/>
			<path class="st2" d="M532.5,403.1c0.2-0.3,0.3-0.5,0.3-0.7c0-0.3-0.2-0.7-0.6-1c-0.6-0.5-1.2-0.6-1.5-0.2
				c-0.1,0.2-0.2,0.4-0.1,0.6c0.1,0.2,0.3,0.5,0.8,1.2c1,1.2,1.1,2,0.5,2.7c-0.7,0.9-1.8,0.8-3-0.1c-1.2-1-1.5-2.2-0.7-3.3l0.7,0.6
				c-0.5,0.7-0.4,1.4,0.4,2.1c0.7,0.6,1.4,0.6,1.7,0.2c0.2-0.2,0.2-0.4,0.1-0.6c-0.1-0.3-0.2-0.4-0.9-1.4c-0.4-0.6-0.7-1-0.8-1.3
				c-0.1-0.4,0-0.8,0.3-1.1c0.6-0.8,1.7-0.7,2.8,0.2c1,0.8,1.2,1.8,0.5,2.9L532.5,403.1z"/>
			<path class="st2" d="M537,406.7c0.2-0.3,0.3-0.5,0.3-0.7c0-0.3-0.2-0.7-0.6-1c-0.6-0.5-1.2-0.6-1.5-0.2c-0.1,0.2-0.2,0.4-0.1,0.6
				c0.1,0.2,0.3,0.5,0.8,1.2c1,1.2,1.1,2,0.5,2.7c-0.7,0.9-1.8,0.8-3-0.1c-1.2-1-1.5-2.2-0.7-3.3l0.7,0.6c-0.5,0.7-0.4,1.4,0.4,2.1
				c0.7,0.6,1.4,0.6,1.7,0.2c0.2-0.2,0.2-0.4,0.1-0.6c-0.1-0.3-0.2-0.4-0.9-1.4c-0.4-0.6-0.7-1-0.8-1.3c-0.1-0.4,0-0.8,0.3-1.1
				c0.6-0.8,1.7-0.7,2.8,0.2c1,0.8,1.2,1.8,0.5,2.9L537,406.7z"/>
			<path class="st2" d="M539,413.6l-0.9-0.7l7.3-4.3l0.9,0.7l-2.8,8.1l-0.9-0.7l0.9-2.4l-2.4-2L539,413.6z M543.9,413.4l1.4-3.7
				l-3.3,2.1L543.9,413.4z"/>
			<path class="st2" d="M546.2,418.2l4.2-2.7l0.8,0.6l-5.2,3.1l-0.9-0.7l2.1-5.7l0.8,0.6L546.2,418.2z"/>
			<path class="st2" d="M550.4,419.5c-0.7,1.1-0.7,2.1,0.2,2.8c0.6,0.5,1.2,0.5,1.9,0.1l0.7,0.6c-1.1,0.7-2.1,0.7-3.1-0.1
				c-1.3-1.1-1.4-2.7-0.3-4.1c1.2-1.4,2.8-1.7,4-0.7c0.9,0.7,1.2,1.7,0.9,2.8c-0.1,0.4-0.4,0.9-0.8,1.5L550.4,419.5z M553.6,421.2
				c0.6-0.9,0.5-1.9-0.2-2.5c-0.8-0.6-1.7-0.5-2.5,0.3L553.6,421.2z"/>
		</g>
	</g>
	<g>
		<g>
			<path class="st2" d="M451.7,444.4l1.6-2.1c0.8-1,1.2-1.4,2-1.6c1.1-0.3,2.2,0,3.5,1c2.1,1.6,2.5,3.4,1,5.3l-1.7,2.2L451.7,444.4z
				 M459,446.6c0.4-0.5,0.6-1,0.7-1.4c0.1-0.9-0.4-1.7-1.6-2.6c-1.1-0.8-2-1.1-2.8-0.8c-0.4,0.2-0.8,0.5-1.3,1.1l-1,1.3l4.9,3.8
				L459,446.6z"/>
			<path class="st2" d="M461.2,440.8c1.1,0.7,2.1,0.6,2.8-0.3c0.5-0.6,0.5-1.2,0-1.9l0.6-0.8c0.8,1.1,0.8,2.1,0,3.1
				c-1,1.3-2.6,1.5-4.1,0.4c-1.5-1.1-1.8-2.7-0.8-4c0.7-0.9,1.7-1.3,2.7-1c0.5,0.1,0.9,0.3,1.5,0.8L461.2,440.8z M462.8,437.6
				c-0.9-0.6-1.9-0.5-2.5,0.3c-0.6,0.8-0.5,1.7,0.4,2.5L462.8,437.6z"/>
			<path class="st2" d="M464.8,434.9l-0.3-3.5l0.7-1l0.3,2.9l4.5,0.2l-0.7,0.9l-3.8-0.2l0.1,1.3l1.8,1.4l-0.6,0.7l-6.4-4.9l0.6-0.7
				L464.8,434.9z"/>
			<path class="st2" d="M473.7,428.9c-0.1,0.2-0.1,0.3-0.2,0.4c-0.2,0.3-0.6,0.5-0.9,0.4c-0.1,0-0.2-0.1-0.5-0.2
				c0.2,0.8,0.1,1.5-0.5,2.3c-0.7,0.9-1.7,1.2-2.4,0.6c-0.5-0.4-0.7-0.9-0.6-1.5c0-0.5,0.1-0.6,0.9-2.2c0.3-0.5,0.3-0.8-0.1-1
				c-0.6-0.4-1-0.3-1.5,0.3c-0.4,0.5-0.5,1.1-0.4,1.4c0.1,0.2,0.2,0.3,0.4,0.5l-0.5,0.7c-0.4-0.4-0.6-0.6-0.7-1
				c-0.2-0.6,0-1.4,0.6-2.1c0.5-0.7,1.1-1.1,1.6-1.1c0.3,0,0.6,0.1,1.1,0.5l2.1,1.6c0.5,0.4,0.7,0.4,0.9,0.1c0,0,0.1-0.1,0.1-0.2
				L473.7,428.9z M470.3,428.3c-0.1,0.3-0.1,0.5-0.4,1c-0.4,0.9-0.5,1.2-0.5,1.6c0,0.2,0.1,0.5,0.3,0.6c0.4,0.3,1,0.2,1.4-0.4
				c0.6-0.8,0.6-1.7-0.1-2.2L470.3,428.3z"/>
			<path class="st2" d="M474.9,427.2l-0.6,0.8l-6.4-4.9l0.6-0.8L474.9,427.2z"/>
			<path class="st2" d="M472.6,422.1c-0.2-0.8-0.1-1.4,0.4-2.1c0.9-1.2,2.4-1.2,3.9-0.1c1.4,1.1,1.8,2.6,1,3.8
				c-0.5,0.6-1.1,0.9-1.9,0.9l0.6,0.5l-0.6,0.7l-6.4-4.9l0.6-0.7L472.6,422.1z M473.2,422c0.1,0.5,0.5,0.9,1,1.4
				c0.6,0.4,1,0.6,1.4,0.6c0.6,0,1.1-0.2,1.4-0.7c0.6-0.8,0.3-1.8-0.8-2.7c-1.1-0.9-2.2-0.9-2.8-0.1
				C473.2,421,473.1,421.5,473.2,422z"/>
			<path class="st2" d="M482.2,417.7l-0.7,0.9l-4.6-7.2l0.7-0.9l8.1,2.5l-0.7,0.9l-2.4-0.8l-1.9,2.5L482.2,417.7z M481.8,412.8
				l-3.7-1.2l2.2,3.3L481.8,412.8z"/>
			<path class="st2" d="M486.6,410.4l-2.8-4.1l0.6-0.8l3.3,5.1l-0.7,0.9l-5.8-1.9l0.6-0.8L486.6,410.4z"/>
			<path class="st2" d="M487.7,406.2c1.1,0.7,2.1,0.6,2.8-0.3c0.5-0.6,0.5-1.2,0-1.9l0.6-0.8c0.8,1.1,0.8,2.1,0,3.1
				c-1,1.3-2.6,1.5-4.1,0.4c-1.5-1.1-1.8-2.7-0.8-4c0.7-0.9,1.7-1.3,2.7-1c0.5,0.1,0.9,0.3,1.5,0.8L487.7,406.2z M489.3,403
				c-0.9-0.6-1.9-0.5-2.5,0.3c-0.6,0.8-0.5,1.7,0.4,2.5L489.3,403z"/>
		</g>
	</g>
	<g>
		<g>
			<path d="M278.9,394.3c-1.2,0-2.1-0.4-2.5-1.2c-0.3-0.5-0.3-0.8-0.3-2.1v-0.2h2v0.2c0,0.8,0,0.9,0.1,1.1c0.1,0.3,0.4,0.4,0.8,0.4
				c0.5,0,0.7-0.2,0.7-0.4c0-0.1,0-0.3,0-0.7v-5.7h2.1v5.7c0,0.9-0.1,1.4-0.4,1.8C280.8,393.9,279.9,394.3,278.9,394.3z"/>
			<path class="st10" d="M281.4,385.9v5.5c0,0.9-0.1,1.3-0.3,1.7c-0.4,0.6-1.2,1-2.2,1c-1.1,0-1.9-0.4-2.3-1.1
				c-0.2-0.4-0.3-0.8-0.3-2h1.5c0,0.8,0,0.9,0.1,1.2c0.1,0.4,0.5,0.6,1,0.6c0.5,0,0.9-0.2,1-0.6c0-0.2,0-0.4,0-0.8v-5.4H281.4
				 M281.9,385.4h-0.5h-1.6h-0.5v0.5v5.4c0,0.3,0,0.5,0,0.7c0,0.1-0.1,0.2-0.5,0.2c-0.3,0-0.5-0.1-0.5-0.2c0-0.2,0-0.2,0-1v-0.5
				h-0.5h-1.5h-0.5v0.5c0,1.2,0,1.6,0.3,2.2c0.5,0.9,1.4,1.4,2.7,1.4c1.2,0,2.1-0.4,2.6-1.2c0.4-0.5,0.4-1.1,0.4-1.9v-5.5V385.4
				L281.9,385.4z"/>
		</g>
		<g>
			<path d="M285.6,394.3c-1.9,0-3.2-1.4-3.2-3.3c0-2,1.3-3.3,3.1-3.3c1.9,0,3.1,1.4,3.2,3.7l0,0.3h-4.2c0.1,0.7,0.5,1.1,1.1,1.1
				c0.5,0,0.8-0.2,1-0.6l0.1-0.1h2l-0.1,0.3C288.2,393.4,287.1,394.3,285.6,394.3z M286.6,390.1c-0.1-0.6-0.5-0.8-1.1-0.8
				c-0.6,0-0.9,0.4-1,0.8H286.6z"/>
			<path class="st10" d="M285.5,387.9c1.8,0,2.9,1.3,2.9,3.4h-4.3c0.1,1,0.6,1.6,1.4,1.6c0.6,0,1-0.3,1.3-0.7h1.5
				c-0.3,1.2-1.4,1.9-2.7,1.9c-1.7,0-3-1.3-3-3.1C282.7,389.1,283.8,387.9,285.5,387.9 M284.2,390.3h2.7c-0.1-0.9-0.6-1.3-1.4-1.3
				C284.8,389,284.3,389.5,284.2,390.3 M285.5,387.4c-2,0-3.3,1.5-3.3,3.6c0,2.1,1.5,3.6,3.5,3.6c1.6,0,2.8-0.9,3.2-2.3l0.2-0.6
				h-0.1l0-0.3C288.9,388.9,287.6,387.4,285.5,387.4L285.5,387.4z M284.9,389.8c0.2-0.3,0.5-0.3,0.7-0.3c0.2,0,0.5,0,0.7,0.3H284.9
				L284.9,389.8z M284.8,391.8h1.7l0,0.1c-0.2,0.3-0.4,0.5-0.8,0.5C285.4,392.4,285,392.4,284.8,391.8L284.8,391.8z"/>
		</g>
		<g>
			<path d="M289.5,394.1v-4.9h-0.7v-1.4h0.7v-0.1c0-0.8,0.4-1.5,1-1.8c0.4-0.2,0.8-0.2,1.6-0.2h0.4v1.6h-0.2c-0.8,0-0.8,0.2-0.8,0.5
				v0h1.1v1.4h-1.1v4.9H289.5z"/>
			<path class="st10" d="M292.3,385.9v1.1c-0.8,0-1.1,0.2-1.1,0.7v0.3h1.1v0.9h-1.1v4.9h-1.5v-4.9H289V388h0.7v-0.3
				c0-0.7,0.3-1.3,0.9-1.6c0.3-0.2,0.7-0.2,1.5-0.2H292.3 M292.8,385.4h-0.5h-0.2c-0.8,0-1.3,0.1-1.7,0.3c-0.7,0.3-1.1,1-1.1,1.9
				H289h-0.5v0.5v0.9v0.5h0.5h0.2v4.4v0.5h0.5h1.5h0.5v-0.5v-4.4h0.6h0.5v-0.5V388v-0.5h-0.5h-0.4c0.1,0,0.2,0,0.4,0h0.5V387v-1.1
				V385.4L292.8,385.4z"/>
		</g>
		<g>
			<path d="M293.4,394.1v-4.9h-0.7v-1.4h0.7v-0.1c0-0.8,0.4-1.5,1-1.8c0.4-0.2,0.8-0.2,1.6-0.2h0.4v1.6h-0.2c-0.8,0-0.8,0.2-0.8,0.5
				v0h1.1v1.4h-1.1v4.9H293.4z"/>
			<path class="st10" d="M296.2,385.9v1.1c-0.8,0-1.1,0.2-1.1,0.7v0.3h1.1v0.9h-1.1v4.9h-1.5v-4.9h-0.7V388h0.7v-0.3
				c0-0.7,0.3-1.3,0.9-1.6c0.3-0.2,0.7-0.2,1.5-0.2H296.2 M296.7,385.4h-0.5H296c-0.8,0-1.3,0.1-1.7,0.3c-0.7,0.3-1.1,1-1.1,1.9
				h-0.2h-0.5v0.5v0.9v0.5h0.5h0.2v4.4v0.5h0.5h1.5h0.5v-0.5v-4.4h0.6h0.5v-0.5V388v-0.5h-0.5h-0.4c0.1,0,0.2,0,0.4,0h0.5V387v-1.1
				V385.4L296.7,385.4z"/>
		</g>
		<g>
			<path d="M299.7,394.3c-1.9,0-3.2-1.4-3.2-3.3c0-2,1.3-3.3,3.1-3.3c1.9,0,3.1,1.4,3.2,3.7l0,0.3h-4.2c0.1,0.7,0.5,1.1,1.1,1.1
				c0.5,0,0.8-0.2,1-0.6l0.1-0.1h2l-0.1,0.3C302.3,393.4,301.1,394.3,299.7,394.3z M300.7,390.1c-0.1-0.6-0.5-0.8-1.1-0.8
				c-0.6,0-0.9,0.4-1,0.8H300.7z"/>
			<path class="st10" d="M299.5,387.9c1.8,0,2.9,1.3,2.9,3.4h-4.3c0.1,1,0.6,1.6,1.4,1.6c0.6,0,1-0.3,1.3-0.7h1.5
				c-0.3,1.2-1.4,1.9-2.7,1.9c-1.7,0-3-1.3-3-3.1C296.7,389.1,297.8,387.9,299.5,387.9 M298.2,390.3h2.7c-0.1-0.9-0.6-1.3-1.4-1.3
				C298.8,389,298.4,389.5,298.2,390.3 M299.5,387.4c-2,0-3.3,1.5-3.3,3.6c0,2.1,1.5,3.6,3.5,3.6c1.6,0,2.8-0.9,3.2-2.3l0.2-0.6H303
				l0-0.3C302.9,388.9,301.6,387.4,299.5,387.4L299.5,387.4z M298.9,389.8c0.2-0.3,0.5-0.3,0.7-0.3c0.2,0,0.5,0,0.7,0.3H298.9
				L298.9,389.8z M298.8,391.8h1.7l0,0.1c-0.2,0.3-0.4,0.5-0.8,0.5C299.5,392.4,299,392.4,298.8,391.8L298.8,391.8z"/>
		</g>
		<g>
			<path d="M303.4,394.1v-6.3h2v0.4c0.3-0.3,0.8-0.5,1.2-0.5c0.1,0,0.2,0,0.4,0l0.2,0v1.8l-0.3,0c-0.1,0-0.2,0-0.2,0c0,0,0,0,0,0
				c-0.8,0-1.3,0.5-1.3,1.5v3.2H303.4z"/>
			<path class="st10" d="M306.6,387.9c0.1,0,0.2,0,0.4,0v1.3c-0.1,0-0.2,0-0.3,0c-1,0-1.6,0.7-1.6,1.7v3h-1.5V388h1.5v0.8
				C305.5,388.2,306,387.9,306.6,387.9 M306.6,387.4C306.6,387.4,306.6,387.4,306.6,387.4c-0.3,0-0.7,0.1-1,0.2v-0.1h-0.5h-1.5h-0.5
				v0.5v5.8v0.5h0.5h1.5h0.5v-0.5v-3c0-0.5,0.1-1.2,1.1-1.2c0,0,0,0,0,0c0,0,0.1,0,0.2,0l0.6,0.1v-0.6v-1.3v-0.4l-0.4-0.1
				C306.8,387.4,306.7,387.4,306.6,387.4L306.6,387.4z"/>
		</g>
		<g>
			<path d="M310.2,394.3c-1.7,0-2.8-0.8-2.9-2.3l0-0.3h1.8l0,0.2c0.1,0.5,0.4,0.7,1.1,0.7c0.4,0,0.9-0.1,0.9-0.5
				c0-0.1,0-0.2-0.8-0.4c-1-0.2-1.6-0.4-2-0.6c-0.5-0.3-0.8-0.9-0.8-1.4c0-1.2,1.1-2.1,2.6-2.1c1.6,0,2.6,0.8,2.7,2.1l0,0.3h-1.8
				l0-0.2c-0.1-0.4-0.4-0.6-0.9-0.6c-0.5,0-0.8,0.2-0.8,0.4c0,0.1,0.1,0.1,0.2,0.2c0.2,0.1,0.4,0.1,1.2,0.3c0.9,0.2,1.3,0.3,1.6,0.6
				c0.4,0.3,0.6,0.9,0.6,1.5C313,393.4,311.9,394.3,310.2,394.3z"/>
			<path class="st10" d="M310.1,387.9c1.4,0,2.4,0.7,2.5,1.9h-1.3c-0.1-0.6-0.5-0.8-1.2-0.8c-0.6,0-1.1,0.3-1.1,0.7
				c0,0.2,0.1,0.3,0.3,0.4c0.2,0.1,0.5,0.2,1.3,0.3c0.8,0.1,1.2,0.3,1.5,0.5c0.3,0.3,0.6,0.7,0.6,1.3c0,1.1-1,1.9-2.5,1.9
				c-1.6,0-2.5-0.7-2.7-2h1.3c0.1,0.6,0.5,0.9,1.3,0.9c0.7,0,1.1-0.3,1.1-0.7c0-0.4-0.2-0.5-1-0.6c-0.9-0.2-1.6-0.4-1.9-0.6
				c-0.5-0.3-0.7-0.7-0.7-1.2C307.7,388.6,308.7,387.9,310.1,387.9 M310.1,387.4c-1.6,0-2.8,1-2.8,2.4c0,0.7,0.3,1.3,0.9,1.7
				c0,0,0.1,0.1,0.1,0.1h-0.7H307l0.1,0.6c0.2,1.6,1.3,2.5,3.2,2.5c1.8,0,3-1,3-2.4c0-0.7-0.3-1.3-0.7-1.6c-0.1-0.1-0.2-0.1-0.3-0.2
				h0.4h0.6l-0.1-0.6C312.9,388.3,311.7,387.4,310.1,387.4L310.1,387.4z M309.6,389.6c0.1-0.1,0.2-0.1,0.5-0.1
				c0.5,0,0.6,0.1,0.7,0.4c0,0,0,0,0,0C310,389.7,309.7,389.7,309.6,389.6L309.6,389.6z M310.2,392.4c-0.7,0-0.8-0.3-0.8-0.5l0,0
				c0.3,0.1,0.5,0.1,0.8,0.2c0.4,0.1,0.5,0.1,0.6,0.1C310.8,392.3,310.5,392.4,310.2,392.4L310.2,392.4z"/>
		</g>
		<g>
			<path d="M316.5,394.3c-1.8,0-3.2-1.4-3.2-3.3c0-1.9,1.4-3.3,3.3-3.3c1.9,0,3.3,1.4,3.3,3.3C319.8,392.9,318.4,394.3,316.5,394.3z
				 M316.6,389.3c-0.8,0-1.3,0.7-1.3,1.6c0,1,0.5,1.7,1.3,1.7c0.8,0,1.3-0.7,1.3-1.7C317.8,389.9,317.3,389.3,316.6,389.3z"/>
			<path class="st10" d="M316.6,387.9c1.8,0,3,1.3,3,3.1c0,1.8-1.3,3.1-3.1,3.1c-1.7,0-3-1.3-3-3.1
				C313.5,389.2,314.8,387.9,316.6,387.9 M316.6,392.9c0.9,0,1.5-0.8,1.5-1.9c0-1.1-0.6-1.9-1.5-1.9s-1.5,0.8-1.5,1.9
				C315,392.1,315.6,392.9,316.6,392.9 M316.6,387.4c-2,0-3.5,1.5-3.5,3.6c0,2,1.5,3.6,3.5,3.6c2.1,0,3.6-1.5,3.6-3.6
				C320.1,388.9,318.6,387.4,316.6,387.4L316.6,387.4z M316.6,392.4c-1,0-1-1.1-1-1.4c0-0.8,0.4-1.4,1-1.4c0.8,0,1,0.8,1,1.4
				C317.6,391.6,317.3,392.4,316.6,392.4L316.6,392.4z"/>
		</g>
		<g>
			<path d="M324.3,394.1v-3.6c0-0.5,0-0.6-0.1-0.7c-0.1-0.2-0.4-0.4-0.7-0.4c-0.8,0-1,0.7-1,1.2v3.5h-2v-6.3h2v0.4
				c0.4-0.4,0.9-0.6,1.5-0.6c0.9,0,1.6,0.5,2,1.2c0.2,0.3,0.3,0.7,0.3,1.3v4H324.3z"/>
			<path class="st10" d="M324,387.9c0.8,0,1.5,0.4,1.8,1c0.2,0.3,0.2,0.7,0.2,1.2v3.8h-1.5v-3.4c0-0.5,0-0.7-0.2-0.9
				c-0.2-0.3-0.5-0.5-0.9-0.5c-0.8,0-1.2,0.5-1.2,1.5v3.3h-1.5V388h1.5v0.8C322.8,388.1,323.3,387.9,324,387.9 M324,387.4
				c-0.5,0-0.9,0.1-1.2,0.3v-0.2h-0.5h-1.5h-0.5v0.5v5.8v0.5h0.5h1.5h0.5v-0.5v-3.3c0-1,0.5-1,0.7-1c0.3,0,0.4,0.1,0.5,0.2
				c0,0.1,0.1,0.2,0.1,0.6v3.4v0.5h0.5h1.5h0.5v-0.5v-3.8c0-0.6-0.1-1.1-0.3-1.5C325.8,387.9,324.9,387.4,324,387.4L324,387.4z"/>
		</g>
		<g>
			<path d="M333.5,394.3c-2.1,0-3.5-1.1-3.6-2.9l0-0.3h2l0,0.2c0,0.4,0.1,0.6,0.2,0.7c0.2,0.3,0.7,0.4,1.3,0.4
				c0.7,0,1.5-0.2,1.5-0.8c0-0.2-0.1-0.3-0.2-0.4c-0.2-0.2-0.6-0.3-1.7-0.5c-1.2-0.3-1.7-0.5-2.1-0.7c-0.6-0.4-0.9-1.1-0.9-1.9
				c0-1.6,1.3-2.6,3.3-2.6c1.2,0,2.1,0.3,2.7,1c0.4,0.4,0.6,0.9,0.7,1.7l0.1,0.3h-2l0-0.2c-0.1-0.7-0.5-1-1.4-1
				c-0.8,0-1.2,0.3-1.2,0.7c0,0.2,0.1,0.5,0.4,0.6c0.2,0.1,0.3,0.1,1.6,0.4c1.1,0.3,1.7,0.5,2.1,0.9c0.5,0.4,0.8,1.1,0.8,1.7
				C337,393.1,335.6,394.3,333.5,394.3z"/>
			<path class="st10" d="M333.4,385.7c1.1,0,1.9,0.3,2.5,0.9c0.3,0.4,0.5,0.8,0.7,1.6h-1.5c-0.1-0.8-0.7-1.2-1.7-1.2
				c-0.9,0-1.5,0.4-1.5,1c0,0.3,0.2,0.6,0.5,0.8c0.3,0.1,0.3,0.1,1.7,0.5c1.1,0.3,1.6,0.5,2,0.8c0.4,0.4,0.7,0.9,0.7,1.5
				c0,1.5-1.3,2.5-3.3,2.5c-2,0-3.2-1-3.3-2.6h1.5c0,0.4,0.1,0.7,0.3,0.9c0.3,0.3,0.8,0.5,1.5,0.5c1.1,0,1.7-0.4,1.7-1.1
				c0-0.3-0.1-0.5-0.3-0.6c-0.3-0.2-0.7-0.3-1.7-0.6c-1.2-0.3-1.6-0.5-2-0.7c-0.5-0.4-0.8-1-0.8-1.7
				C330.4,386.7,331.6,385.7,333.4,385.7 M333.4,385.2c-2.1,0-3.6,1.2-3.6,2.9c0,0.9,0.4,1.6,1,2.1c0.4,0.3,0.9,0.5,2.1,0.8
				c1,0.3,1.4,0.4,1.6,0.5c0.1,0,0.1,0.1,0.1,0.2c0,0.4-0.7,0.6-1.2,0.6c-0.6,0-0.9-0.2-1.1-0.3c-0.1-0.1-0.2-0.2-0.2-0.6l0-0.5
				h-0.5h-1.5h-0.5l0,0.5c0.1,1.9,1.6,3.1,3.8,3.1c2.2,0,3.8-1.2,3.8-3c0-0.7-0.3-1.5-0.8-1.9c-0.5-0.4-1-0.6-2.2-0.9
				c-1.3-0.3-1.3-0.3-1.6-0.4c-0.1-0.1-0.2-0.2-0.2-0.3c0-0.3,0.5-0.5,1-0.5c0.9,0,1.1,0.3,1.2,0.8l0.1,0.4h0.4h1.5h0.6l-0.1-0.6
				c-0.2-0.9-0.4-1.4-0.8-1.8C335.6,385.6,334.6,385.2,333.4,385.2L333.4,385.2z"/>
		</g>
		<g>
			<path d="M339.8,394.1c-0.5,0-0.7,0-0.9-0.1c-0.5-0.2-0.7-0.5-0.8-1c-0.1-0.3-0.1-0.5-0.1-1v-2.7h-0.8v-1.4h0.8v-1.9h2v1.9h1.1
				v1.4h-1.1v2.7c0,0.4,0,0.5,0.1,0.5c0,0.1,0.2,0.1,0.3,0.1l0.4,0l0.4,0v1.6H339.8z"/>
			<path class="st10" d="M339.7,386.1v1.9h1.1v0.9h-1.1v3c0,0.4,0,0.6,0.1,0.7c0.1,0.1,0.3,0.2,0.5,0.2l0.4,0l0.1,0v1.1h-1
				c-0.5,0-0.6,0-0.9-0.1c-0.4-0.2-0.6-0.4-0.7-0.9c0-0.2-0.1-0.5-0.1-1v-3h-0.8V388h0.8v-1.9H339.7 M340.2,385.6h-0.5h-1.5h-0.5
				v0.5v1.4h-0.3h-0.5v0.5v0.9v0.5h0.5h0.3v2.5c0,0.5,0,0.8,0.1,1.1c0.1,0.6,0.5,1,1,1.2c0.3,0.1,0.5,0.1,1,0.1h1h0.5v-0.5v-1.1
				v-0.6l-0.5,0.1l-0.1,0l-0.4,0c-0.1,0-0.1,0-0.1,0c0,0,0,0,0,0c0,0,0-0.1,0-0.4v-2.5h0.6h0.5v-0.5V388v-0.5h-0.5h-0.6v-1.4V385.6
				L340.2,385.6z"/>
		</g>
		<g>
			<path d="M341.6,394.1v-6.3h2v0.4c0.3-0.3,0.8-0.5,1.2-0.5c0.1,0,0.2,0,0.4,0l0.2,0v1.8l-0.3,0c-0.1,0-0.2,0-0.2,0c0,0,0,0,0,0
				c-0.8,0-1.3,0.5-1.3,1.5v3.2H341.6z"/>
			<path class="st10" d="M344.8,387.9c0.1,0,0.2,0,0.4,0v1.3c-0.1,0-0.2,0-0.3,0c-1,0-1.6,0.7-1.6,1.7v3h-1.5V388h1.5v0.8
				C343.7,388.2,344.2,387.9,344.8,387.9 M344.8,387.4C344.8,387.4,344.8,387.4,344.8,387.4c-0.3,0-0.7,0.1-1,0.2v-0.1h-0.5h-1.5
				h-0.5v0.5v5.8v0.5h0.5h1.5h0.5v-0.5v-3c0-0.5,0.1-1.2,1.1-1.2c0,0,0,0,0,0c0,0,0.1,0,0.2,0l0.6,0.1v-0.6v-1.3v-0.4l-0.4-0.1
				C345,387.4,344.9,387.4,344.8,387.4L344.8,387.4z"/>
		</g>
		<g>
			<path d="M348.7,394.3c-1.9,0-3.2-1.4-3.2-3.3c0-2,1.3-3.3,3.1-3.3c1.9,0,3.1,1.4,3.2,3.7l0,0.3h-4.2c0.1,0.7,0.5,1.1,1.1,1.1
				c0.5,0,0.8-0.2,1-0.6l0.1-0.1h2l-0.1,0.3C351.3,393.4,350.1,394.3,348.7,394.3z M349.7,390.1c-0.1-0.6-0.5-0.8-1.1-0.8
				c-0.6,0-0.9,0.4-1,0.8H349.7z"/>
			<path class="st10" d="M348.6,387.9c1.8,0,2.9,1.3,2.9,3.4h-4.3c0.1,1,0.6,1.6,1.4,1.6c0.6,0,1-0.3,1.3-0.7h1.5
				c-0.3,1.2-1.4,1.9-2.7,1.9c-1.7,0-3-1.3-3-3.1C345.7,389.1,346.9,387.9,348.6,387.9 M347.3,390.3h2.7c-0.1-0.9-0.6-1.3-1.4-1.3
				C347.9,389,347.4,389.5,347.3,390.3 M348.6,387.4c-2,0-3.3,1.5-3.3,3.6c0,2.1,1.5,3.6,3.5,3.6c1.6,0,2.8-0.9,3.2-2.3l0.2-0.6H352
				l0-0.3C352,388.9,350.6,387.4,348.6,387.4L348.6,387.4z M348,389.8c0.2-0.3,0.5-0.3,0.7-0.3c0.2,0,0.5,0,0.7,0.3H348L348,389.8z
				 M347.8,391.8h1.7l0,0.1c-0.2,0.3-0.4,0.5-0.8,0.5C348.5,392.4,348.1,392.4,347.8,391.8L347.8,391.8z"/>
		</g>
		<g>
			<path d="M355.4,394.3c-1.9,0-3.2-1.4-3.2-3.3c0-2,1.3-3.3,3.1-3.3c1.9,0,3.1,1.4,3.2,3.7l0,0.3h-4.2c0.1,0.7,0.5,1.1,1.1,1.1
				c0.5,0,0.8-0.2,1-0.6l0.1-0.1h2l-0.1,0.3C358,393.4,356.8,394.3,355.4,394.3z M356.4,390.1c-0.1-0.6-0.5-0.8-1.1-0.8
				c-0.6,0-0.9,0.4-1,0.8H356.4z"/>
			<path class="st10" d="M355.3,387.9c1.8,0,2.9,1.3,2.9,3.4h-4.3c0.1,1,0.6,1.6,1.4,1.6c0.6,0,1-0.3,1.3-0.7h1.5
				c-0.3,1.2-1.4,1.9-2.7,1.9c-1.7,0-3-1.3-3-3.1C352.4,389.1,353.6,387.9,355.3,387.9 M354,390.3h2.7c-0.1-0.9-0.6-1.3-1.4-1.3
				C354.6,389,354.1,389.5,354,390.3 M355.3,387.4c-2,0-3.3,1.5-3.3,3.6c0,2.1,1.5,3.6,3.5,3.6c1.6,0,2.8-0.9,3.2-2.3l0.2-0.6h-0.1
				l0-0.3C358.7,388.9,357.3,387.4,355.3,387.4L355.3,387.4z M354.6,389.8c0.2-0.3,0.5-0.3,0.7-0.3c0.2,0,0.5,0,0.7,0.3H354.6
				L354.6,389.8z M354.5,391.8h1.7l0,0.1c-0.2,0.3-0.4,0.5-0.8,0.5C355.2,392.4,354.8,392.4,354.5,391.8L354.5,391.8z"/>
		</g>
		<g>
			<path d="M361.1,394.1c-0.5,0-0.7,0-0.9-0.1c-0.5-0.2-0.7-0.5-0.8-1c-0.1-0.3-0.1-0.5-0.1-1v-2.7h-0.8v-1.4h0.8v-1.9h2v1.9h1.1
				v1.4h-1.1v2.7c0,0.4,0,0.5,0.1,0.5c0,0.1,0.2,0.1,0.3,0.1l0.4,0l0.4,0v1.6H361.1z"/>
			<path class="st10" d="M361,386.1v1.9h1.1v0.9H361v3c0,0.4,0,0.6,0.1,0.7c0.1,0.1,0.3,0.2,0.5,0.2l0.4,0l0.1,0v1.1h-1
				c-0.5,0-0.6,0-0.9-0.1c-0.4-0.2-0.6-0.4-0.7-0.9c0-0.2-0.1-0.5-0.1-1v-3h-0.8V388h0.8v-1.9H361 M361.5,385.6H361h-1.5H359v0.5
				v1.4h-0.3h-0.5v0.5v0.9v0.5h0.5h0.3v2.5c0,0.5,0,0.8,0.1,1.1c0.1,0.6,0.5,1,1,1.2c0.3,0.1,0.5,0.1,1,0.1h1h0.5v-0.5v-1.1v-0.6
				l-0.5,0.1l-0.1,0l-0.4,0c-0.1,0-0.1,0-0.1,0c0,0,0,0,0,0c0,0,0-0.1,0-0.4v-2.5h0.6h0.5v-0.5V388v-0.5h-0.5h-0.6v-1.4V385.6
				L361.5,385.6z"/>
		</g>
	</g>
	<g>
		<g>
			<path d="M357.1,274.6v-8.5h3.9c0.8,0,1.4,0.1,1.9,0.5c0.6,0.4,0.9,1.1,0.9,1.8c0,0.8-0.3,1.3-1,1.7c0.8,0.4,1.2,1.1,1.2,2
				c0,1-0.5,1.8-1.3,2.2c-0.4,0.2-0.9,0.3-1.7,0.3H357.1z M360.5,272.8c0.5,0,0.8,0,1-0.1c0.3-0.1,0.5-0.4,0.5-0.8
				c0-0.4-0.2-0.7-0.6-0.8c-0.2-0.1-0.4-0.1-0.9-0.1h-1.3v1.8H360.5z M360.4,269.3c0.5,0,0.7,0,0.9-0.1c0.3-0.1,0.5-0.4,0.5-0.7
				c0-0.3-0.2-0.5-0.5-0.6c-0.2,0-0.4-0.1-0.8-0.1h-1.3v1.5H360.4z"/>
			<path class="st10" d="M361,266.3c0.7,0,1.3,0.1,1.7,0.4c0.5,0.3,0.8,0.9,0.8,1.6c0,0.9-0.5,1.4-1.4,1.7c1.1,0.2,1.7,1,1.7,2
				c0,0.9-0.5,1.7-1.2,2c-0.4,0.2-0.8,0.3-1.6,0.3h-3.8v-8H361 M358.9,269.6h1.5c0.5,0,0.7,0,1-0.1c0.4-0.2,0.6-0.5,0.6-0.9
				c0-0.4-0.2-0.7-0.7-0.9c-0.2-0.1-0.4-0.1-0.9-0.1h-1.5V269.6 M358.9,273.1h1.5c0.6,0,0.9,0,1.1-0.1c0.4-0.2,0.6-0.5,0.6-1
				c0-0.5-0.3-0.9-0.8-1.1c-0.2-0.1-0.5-0.1-1-0.1h-1.6V273.1 M361,265.8h-3.6h-0.5v0.5v8v0.5h0.5h3.8c0.8,0,1.4-0.1,1.8-0.3
				c0.9-0.4,1.4-1.4,1.4-2.5c0-0.9-0.4-1.6-1-2c0.5-0.4,0.7-1,0.7-1.7c0-0.8-0.4-1.6-1-2C362.5,266,361.8,265.8,361,265.8L361,265.8
				z M359.4,268.1h1c0.4,0,0.6,0,0.8,0.1c0.3,0.1,0.3,0.3,0.3,0.4c0,0.1,0,0.3-0.3,0.4c-0.2,0.1-0.3,0.1-0.8,0.1h-1V268.1
				L359.4,268.1z M359.4,271.3h1.1c0.5,0,0.7,0,0.8,0.1c0.3,0.1,0.4,0.3,0.4,0.6c0,0.3-0.1,0.4-0.3,0.5c-0.2,0.1-0.4,0.1-0.9,0.1h-1
				V271.3L359.4,271.3z"/>
		</g>
		<g>
			<path d="M367,274.7c-1,0-1.8-0.6-2.1-1.6c-0.1-0.3-0.1-0.6-0.1-1.4v-3.5h2v3.4c0,0.6,0,0.7,0.1,0.8c0.1,0.3,0.3,0.5,0.7,0.5
				c0.3,0,0.6-0.1,0.7-0.3c0.1-0.2,0.2-0.4,0.2-0.9v-3.5h2v6.3h-2v-0.3C368,274.6,367.5,274.7,367,274.7z"/>
			<path class="st10" d="M370.2,268.5v5.8h-1.5v-0.6c-0.6,0.5-1.1,0.8-1.7,0.8c-0.9,0-1.6-0.5-1.9-1.4c-0.1-0.3-0.1-0.6-0.1-1.3
				v-3.3h1.5v3.2c0,0.6,0,0.7,0.1,0.9c0.1,0.4,0.5,0.6,0.9,0.6c0.4,0,0.7-0.2,0.9-0.4c0.2-0.2,0.3-0.5,0.3-1v-3.3H370.2 M370.7,268
				h-0.5h-1.5h-0.5v0.5v3.3c0,0.5-0.1,0.6-0.2,0.7c-0.1,0.1-0.3,0.2-0.5,0.2c-0.3,0-0.4-0.1-0.5-0.3c0-0.1-0.1-0.2-0.1-0.8v-3.2V268
				h-0.5H365h-0.5v0.5v3.3c0,0.8,0,1.1,0.1,1.5c0.3,1.1,1.2,1.8,2.3,1.8c0.4,0,0.8-0.1,1.2-0.3v0.1h0.5h1.5h0.5v-0.5v-5.8V268
				L370.7,268z"/>
		</g>
		<g>
			<path d="M375.2,274.6V271c0-0.5,0-0.6-0.1-0.7c-0.1-0.2-0.4-0.4-0.7-0.4c-0.8,0-1,0.7-1,1.2v3.5h-2v-6.3h2v0.4
				c0.4-0.4,0.9-0.6,1.5-0.6c0.9,0,1.6,0.5,2,1.2c0.2,0.3,0.3,0.7,0.3,1.3v4H375.2z"/>
			<path class="st10" d="M374.9,268.3c0.8,0,1.5,0.4,1.8,1c0.2,0.3,0.2,0.7,0.2,1.2v3.8h-1.5V271c0-0.5,0-0.7-0.2-0.9
				c-0.2-0.3-0.5-0.5-0.9-0.5c-0.8,0-1.2,0.5-1.2,1.5v3.3h-1.5v-5.8h1.5v0.8C373.7,268.6,374.2,268.3,374.9,268.3 M374.9,267.8
				c-0.5,0-0.9,0.1-1.2,0.3V268h-0.5h-1.5h-0.5v0.5v5.8v0.5h0.5h1.5h0.5v-0.5v-3.3c0-1,0.5-1,0.7-1c0.3,0,0.4,0.1,0.5,0.2
				c0,0.1,0.1,0.2,0.1,0.6v3.4v0.5h0.5h1.5h0.5v-0.5v-3.8c0-0.6-0.1-1.1-0.3-1.5C376.7,268.3,375.8,267.8,374.9,267.8L374.9,267.8z"
				/>
		</g>
		<g>
			<polygon points="382.1,274.6 380.6,272.1 380.1,272.5 380.1,274.6 378.2,274.6 378.2,266.1 380.1,266.1 380.1,270.2 381.9,268.2 
				384.3,268.2 382,270.7 384.5,274.6 			"/>
			<path class="st10" d="M379.9,266.3v4.5l2.1-2.3h1.8l-2.1,2.2l2.4,3.6h-1.9l-1.6-2.7l-0.7,0.8v1.9h-1.5v-8H379.9 M380.4,265.8
				h-0.5h-1.5h-0.5v0.5v8v0.5h0.5h1.5h0.5v-0.5v-1.7l0.1-0.2l1.3,2.1l0.1,0.2h0.3h1.9h0.9l-0.5-0.8l-2.2-3.3l1.8-1.9l0.8-0.8h-1.2
				H382h-0.2l-0.1,0.2l-1.3,1.4v-3.2V265.8L380.4,265.8z"/>
		</g>
		<g>
			<path d="M387.2,274.7c-1.9,0-3.2-1.4-3.2-3.3c0-2,1.3-3.3,3.1-3.3c1.9,0,3.1,1.4,3.2,3.7l0,0.3h-4.2c0.1,0.7,0.5,1.1,1.1,1.1
				c0.5,0,0.8-0.2,1-0.6l0.1-0.1h2l-0.1,0.3C389.8,273.9,388.7,274.7,387.2,274.7z M388.2,270.5c-0.1-0.6-0.5-0.8-1.1-0.8
				c-0.6,0-0.9,0.4-1,0.8H388.2z"/>
			<path class="st10" d="M387.1,268.3c1.8,0,2.9,1.3,2.9,3.4h-4.3c0.1,1,0.6,1.6,1.4,1.6c0.6,0,1-0.3,1.3-0.7h1.5
				c-0.3,1.2-1.4,1.9-2.7,1.9c-1.7,0-3-1.3-3-3.1C384.3,269.6,385.4,268.3,387.1,268.3 M385.8,270.8h2.7c-0.1-0.9-0.6-1.3-1.4-1.3
				C386.4,269.5,385.9,269.9,385.8,270.8 M387.1,267.8c-2,0-3.3,1.5-3.3,3.6c0,2.1,1.5,3.6,3.5,3.6c1.6,0,2.8-0.9,3.2-2.3l0.2-0.6
				h-0.1l0-0.3C390.5,269.3,389.2,267.8,387.1,267.8L387.1,267.8z M386.5,270.3c0.2-0.3,0.5-0.3,0.7-0.3c0.2,0,0.5,0,0.7,0.3H386.5
				L386.5,270.3z M386.4,272.3h1.7l0,0.1c-0.2,0.3-0.4,0.5-0.8,0.5C387,272.8,386.6,272.8,386.4,272.3L386.4,272.3z"/>
		</g>
		<g>
			<path d="M391,274.6v-6.3h2v0.4c0.3-0.3,0.8-0.5,1.2-0.5c0.1,0,0.2,0,0.4,0l0.2,0v1.8l-0.3,0c-0.1,0-0.2,0-0.2,0c0,0,0,0,0,0
				c-0.8,0-1.3,0.5-1.3,1.5v3.2H391z"/>
			<path class="st10" d="M394.2,268.4c0.1,0,0.2,0,0.4,0v1.3c-0.1,0-0.2,0-0.3,0c-1,0-1.6,0.7-1.6,1.7v3h-1.5v-5.8h1.5v0.8
				C393.1,268.7,393.6,268.4,394.2,268.4 M394.2,267.9C394.2,267.9,394.2,267.9,394.2,267.9c-0.3,0-0.7,0.1-1,0.2V268h-0.5h-1.5
				h-0.5v0.5v5.8v0.5h0.5h1.5h0.5v-0.5v-3c0-0.5,0.1-1.2,1.1-1.2c0,0,0,0,0,0c0,0,0.1,0,0.2,0l0.6,0.1v-0.6v-1.3V268l-0.4-0.1
				C394.4,267.9,394.3,267.9,394.2,267.9L394.2,267.9z"/>
		</g>
		<g>
			<polygon points="400.3,274.6 397.4,266.1 399.6,266.1 401.2,271.6 402.8,266.1 405.1,266.1 402.2,274.6 			"/>
			<path class="st10" d="M404.7,266.3l-2.7,8h-1.5l-2.7-8h1.7l1.8,6.2l1.8-6.2H404.7 M405.4,265.8h-0.7H403h-0.4l-0.1,0.4l-1.3,4.5
				l-1.3-4.5l-0.1-0.4h-0.4h-1.7H397l0.2,0.7l2.7,8l0.1,0.3h0.4h1.5h0.4l0.1-0.3l2.7-8L405.4,265.8L405.4,265.8z"/>
		</g>
		<g>
			<path d="M405.3,274.6v-6.3h2v6.3H405.3z M405.3,267.9V266h2v1.8H405.3z"/>
			<path class="st10" d="M407.1,266.3v1.3h-1.5v-1.3H407.1 M407.1,268.5v5.8h-1.5v-5.8H407.1 M407.6,265.8h-0.5h-1.5h-0.5v0.5v1.3
				v0.5v0.4v5.8v0.5h0.5h1.5h0.5v-0.5v-5.8V268v-0.4v-1.3V265.8L407.6,265.8z"/>
		</g>
		<g>
			<path d="M411.2,274.7c-1.9,0-3.2-1.4-3.2-3.3c0-2,1.3-3.3,3.1-3.3c1.9,0,3.1,1.4,3.2,3.7l0,0.3h-4.2c0.1,0.7,0.5,1.1,1.1,1.1
				c0.5,0,0.8-0.2,1-0.6l0.1-0.1h2l-0.1,0.3C413.8,273.9,412.7,274.7,411.2,274.7z M412.2,270.5c-0.1-0.6-0.5-0.8-1.1-0.8
				c-0.6,0-0.9,0.4-1,0.8H412.2z"/>
			<path class="st10" d="M411.1,268.3c1.8,0,2.9,1.3,2.9,3.4h-4.3c0.1,1,0.6,1.6,1.4,1.6c0.6,0,1-0.3,1.3-0.7h1.5
				c-0.3,1.2-1.4,1.9-2.7,1.9c-1.7,0-3-1.3-3-3.1C408.3,269.6,409.4,268.3,411.1,268.3 M409.8,270.8h2.7c-0.1-0.9-0.6-1.3-1.4-1.3
				C410.4,269.5,409.9,269.9,409.8,270.8 M411.1,267.8c-2,0-3.3,1.5-3.3,3.6c0,2.1,1.5,3.6,3.5,3.6c1.6,0,2.8-0.9,3.2-2.3l0.2-0.6
				h-0.1l0-0.3C414.5,269.3,413.2,267.8,411.1,267.8L411.1,267.8z M410.5,270.3c0.2-0.3,0.5-0.3,0.7-0.3c0.2,0,0.5,0,0.7,0.3H410.5
				L410.5,270.3z M410.4,272.3h1.7l0,0.1c-0.2,0.3-0.4,0.5-0.8,0.5C411,272.8,410.6,272.8,410.4,272.3L410.4,272.3z"/>
		</g>
		<g>
			<path d="M416.9,274.6c-0.5,0-0.7,0-0.9-0.1c-0.5-0.2-0.7-0.5-0.8-1c-0.1-0.3-0.1-0.5-0.1-1v-2.7h-0.8v-1.4h0.8v-1.9h2v1.9h1.1
				v1.4H417v2.7c0,0.4,0,0.5,0.1,0.5c0,0.1,0.2,0.1,0.3,0.1l0.4,0l0.4,0v1.6H416.9z"/>
			<path class="st10" d="M416.8,266.6v1.9h1.1v0.9h-1.1v3c0,0.4,0,0.6,0.1,0.7c0.1,0.1,0.3,0.2,0.5,0.2l0.4,0l0.1,0v1.1h-1
				c-0.5,0-0.6,0-0.9-0.1c-0.4-0.2-0.6-0.4-0.7-0.9c0-0.2-0.1-0.5-0.1-1v-3h-0.8v-0.9h0.8v-1.9H416.8 M417.3,266.1h-0.5h-1.5h-0.5
				v0.5v1.4h-0.3H414v0.5v0.9v0.5h0.5h0.3v2.5c0,0.5,0,0.8,0.1,1.1c0.1,0.6,0.5,1,1,1.2c0.3,0.1,0.5,0.1,1,0.1h1h0.5v-0.5v-1.1v-0.6
				l-0.5,0.1l-0.1,0l-0.4,0c-0.1,0-0.1,0-0.1,0c0,0,0,0,0,0c0,0,0-0.1,0-0.4v-2.5h0.6h0.5v-0.5v-0.9V268h-0.5h-0.6v-1.4V266.1
				L417.3,266.1z"/>
		</g>
		<g>
			<path d="M422.5,274.6V271c0-0.5,0-0.6-0.1-0.7c-0.1-0.2-0.4-0.4-0.7-0.4c-0.8,0-1,0.7-1,1.2v3.5h-2v-6.3h2v0.4
				c0.4-0.4,0.9-0.6,1.5-0.6c0.9,0,1.6,0.5,2,1.2c0.2,0.3,0.3,0.7,0.3,1.3v4H422.5z"/>
			<path class="st10" d="M422.2,268.3c0.8,0,1.5,0.4,1.8,1c0.2,0.3,0.2,0.7,0.2,1.2v3.8h-1.5V271c0-0.5,0-0.7-0.2-0.9
				c-0.2-0.3-0.5-0.5-0.9-0.5c-0.8,0-1.2,0.5-1.2,1.5v3.3H419v-5.8h1.5v0.8C421,268.6,421.5,268.3,422.2,268.3 M422.2,267.8
				c-0.5,0-0.9,0.1-1.2,0.3V268h-0.5H419h-0.5v0.5v5.8v0.5h0.5h1.5h0.5v-0.5v-3.3c0-1,0.5-1,0.7-1c0.3,0,0.4,0.1,0.5,0.2
				c0,0.1,0.1,0.2,0.1,0.6v3.4v0.5h0.5h1.5h0.5v-0.5v-3.8c0-0.6-0.1-1.1-0.3-1.5C424,268.3,423.1,267.8,422.2,267.8L422.2,267.8z"/>
		</g>
		<g>
			<path d="M427.6,274.7c-1.3,0-2.4-0.9-2.4-2c0-0.7,0.5-1.4,1.2-1.8c0.5-0.2,1.1-0.4,2-0.5c0.7-0.1,0.7-0.2,0.7-0.3
				c0-0.3-0.3-0.5-0.8-0.5c-0.4,0-0.9,0.1-0.9,0.6l0,0.2h-1.9l0-0.3c0.1-0.6,0.2-0.9,0.5-1.3c0.5-0.6,1.3-0.8,2.3-0.8
				c1.6,0,2.3,0.6,2.6,1.2c0.2,0.3,0.2,0.7,0.2,1.4v2.4c0,0.7,0,0.8,0.2,1.1l0.2,0.4h-2l-0.1-0.4
				C428.7,274.6,428.2,274.7,427.6,274.7z M429.2,271.7c-0.2,0.1-0.3,0.1-0.6,0.2c-1.3,0.3-1.4,0.5-1.4,0.8c0,0.3,0.4,0.5,0.8,0.5
				c0.4,0,0.7-0.1,1-0.3c0.2-0.1,0.3-0.3,0.3-0.7V271.7z"/>
			<path class="st10" d="M428.3,268.3c1.2,0,2,0.4,2.3,1c0.2,0.3,0.2,0.7,0.2,1.3v2.4c0,0.7,0,0.9,0.2,1.2h-1.4l-0.2-0.5
				c-0.6,0.5-1.2,0.7-1.9,0.7c-1.2,0-2.2-0.8-2.2-1.8c0-0.6,0.4-1.2,1.1-1.5c0.4-0.2,1-0.4,1.9-0.5c0.7-0.1,0.9-0.2,0.9-0.6
				c0-0.4-0.4-0.8-1.1-0.8c-0.7,0-1.1,0.3-1.2,0.9h-1.4c0.1-0.6,0.2-0.9,0.4-1.1C426.6,268.6,427.3,268.3,428.3,268.3 M427.9,273.3
				c0.4,0,0.8-0.1,1.1-0.3c0.3-0.2,0.4-0.4,0.4-0.9v-0.8c-0.3,0.2-0.4,0.2-0.9,0.3c-1.2,0.3-1.6,0.5-1.6,1
				C426.9,273,427.3,273.3,427.9,273.3 M428.3,267.8c-1.1,0-2,0.3-2.5,0.9c-0.3,0.4-0.5,0.8-0.5,1.4l-0.1,0.6h0.6h0.5
				c-0.9,0.4-1.3,1.1-1.3,2c0,1.3,1.2,2.3,2.7,2.3c0.6,0,1.1-0.1,1.6-0.4l0.1,0.3h0.4h1.4h0.8l-0.3-0.7c-0.1-0.3-0.1-0.4-0.1-1v-2.4
				c0-0.7-0.1-1.1-0.3-1.5C430.8,268.6,430.1,267.8,428.3,267.8L428.3,267.8z M427.6,270.3L427.6,270.3c0-0.2,0-0.5,0.7-0.5
				c0.3,0,0.6,0.1,0.6,0.3c0,0-0.2,0.1-0.5,0.1C428.1,270.2,427.9,270.3,427.6,270.3L427.6,270.3z M427.9,272.8
				c-0.3,0-0.5-0.1-0.5-0.2c0-0.1,0-0.2,1.2-0.5c0.1,0,0.2-0.1,0.3-0.1v0c0,0.4-0.1,0.4-0.2,0.5
				C428.5,272.7,428.3,272.8,427.9,272.8L427.9,272.8z"/>
		</g>
		<g>
			<path d="M439.1,274.6V271c0-0.4,0-0.6-0.1-0.8c-0.1-0.2-0.3-0.4-0.6-0.4c-0.3,0-0.6,0.2-0.8,0.5c-0.1,0.2-0.1,0.3-0.1,0.7v3.5h-2
				V271c0-0.4,0-0.6-0.1-0.7c-0.1-0.3-0.3-0.4-0.6-0.4c-0.3,0-0.6,0.2-0.8,0.5c-0.1,0.2-0.1,0.3-0.1,0.7v3.6h-2v-6.3h2v0.3
				c0.4-0.3,0.8-0.5,1.4-0.5c0.8,0,1.3,0.3,1.8,0.9c0.5-0.6,1.1-0.9,1.8-0.9c1,0,1.8,0.6,2,1.5c0.1,0.3,0.1,0.7,0.1,1.3v3.7H439.1z"
				/>
			<path class="st10" d="M439,268.3c0.9,0,1.5,0.5,1.8,1.3c0.1,0.3,0.1,0.6,0.1,1.2v3.5h-1.5V271c0-0.4,0-0.7-0.1-0.9
				c-0.1-0.3-0.5-0.5-0.9-0.5c-0.4,0-0.8,0.3-1,0.6c-0.1,0.2-0.1,0.4-0.1,0.8v3.3h-1.5V271c0-0.4,0-0.6-0.1-0.8
				c-0.2-0.4-0.5-0.6-0.9-0.6c-0.4,0-0.8,0.2-1,0.6c-0.1,0.2-0.1,0.4-0.1,0.8v3.3h-1.5v-5.8h1.5v0.7c0.4-0.6,0.9-0.9,1.6-0.9
				c0.8,0,1.4,0.3,1.7,1.1C437.5,268.7,438.2,268.3,439,268.3 M439,267.8c-0.7,0-1.3,0.2-1.8,0.7c-0.4-0.5-1-0.7-1.8-0.7
				c-0.4,0-0.8,0.1-1.1,0.2V268h-0.5h-1.5h-0.5v0.5v5.8v0.5h0.5h1.5h0.5v-0.5V271c0-0.4,0-0.5,0.1-0.6c0.1-0.2,0.3-0.3,0.5-0.3
				c0.2,0,0.3,0.1,0.4,0.3c0,0.1,0,0.4,0,0.6v3.3v0.5h0.5h1.5h0.5v-0.5v-3.3c0-0.4,0-0.5,0.1-0.6c0.1-0.2,0.3-0.3,0.5-0.3
				c0.2,0,0.3,0.1,0.4,0.2c0,0.1,0.1,0.2,0.1,0.7v3.3v0.5h0.5h1.5h0.5v-0.5v-3.5c0-0.6,0-1-0.1-1.4C440.9,268.5,440,267.8,439,267.8
				L439,267.8z"/>
		</g>
		<g>
			<path d="M445,274.7c-1.9,0-3.2-1.4-3.2-3.3c0-2,1.3-3.3,3.1-3.3c1.9,0,3.1,1.4,3.2,3.7l0,0.3h-4.2c0.1,0.7,0.5,1.1,1.1,1.1
				c0.5,0,0.8-0.2,1-0.6l0.1-0.1h2l-0.1,0.3C447.7,273.9,446.5,274.7,445,274.7z M446,270.5c-0.1-0.6-0.5-0.8-1.1-0.8
				c-0.6,0-0.9,0.4-1,0.8H446z"/>
			<path class="st10" d="M444.9,268.3c1.8,0,2.9,1.3,2.9,3.4h-4.3c0.1,1,0.6,1.6,1.4,1.6c0.6,0,1-0.3,1.3-0.7h1.5
				c-0.3,1.2-1.4,1.9-2.7,1.9c-1.7,0-3-1.3-3-3.1C442.1,269.6,443.2,268.3,444.9,268.3 M443.6,270.8h2.7c-0.1-0.9-0.6-1.3-1.4-1.3
				C444.2,269.5,443.7,269.9,443.6,270.8 M444.9,267.8c-2,0-3.3,1.5-3.3,3.6c0,2.1,1.5,3.6,3.5,3.6c1.6,0,2.8-0.9,3.2-2.3l0.2-0.6
				h-0.1l0-0.3C448.3,269.3,447,267.8,444.9,267.8L444.9,267.8z M444.3,270.3c0.2-0.3,0.5-0.3,0.7-0.3c0.2,0,0.5,0,0.7,0.3H444.3
				L444.3,270.3z M444.2,272.3h1.7l0,0.1c-0.2,0.3-0.4,0.5-0.8,0.5C444.8,272.8,444.4,272.8,444.2,272.3L444.2,272.3z"/>
		</g>
		<g>
			<path d="M451.3,274.7c-1.7,0-2.8-0.8-2.9-2.3l0-0.3h1.8l0,0.2c0.1,0.5,0.4,0.7,1.1,0.7c0.4,0,0.9-0.1,0.9-0.5
				c0-0.1,0-0.2-0.8-0.4c-1-0.2-1.6-0.4-2-0.6c-0.5-0.3-0.8-0.9-0.8-1.4c0-1.2,1.1-2.1,2.6-2.1c1.6,0,2.6,0.8,2.7,2.1l0,0.3h-1.8
				l0-0.2c-0.1-0.4-0.4-0.6-0.9-0.6c-0.5,0-0.8,0.2-0.8,0.4c0,0.1,0.1,0.1,0.2,0.2c0.2,0.1,0.4,0.1,1.2,0.3c0.9,0.2,1.3,0.3,1.6,0.6
				c0.4,0.3,0.6,0.9,0.6,1.5C454,273.9,452.9,274.7,451.3,274.7z"/>
			<path class="st10" d="M451.1,268.3c1.4,0,2.4,0.7,2.5,1.9h-1.3c-0.1-0.6-0.5-0.8-1.2-0.8c-0.6,0-1.1,0.3-1.1,0.7
				c0,0.2,0.1,0.3,0.3,0.4c0.2,0.1,0.5,0.2,1.3,0.3c0.8,0.1,1.2,0.3,1.5,0.5c0.3,0.3,0.6,0.7,0.6,1.3c0,1.1-1,1.9-2.5,1.9
				c-1.6,0-2.5-0.7-2.7-2h1.3c0.1,0.6,0.5,0.9,1.3,0.9c0.7,0,1.1-0.3,1.1-0.7c0-0.4-0.2-0.5-1-0.6c-0.9-0.2-1.6-0.4-1.9-0.6
				c-0.5-0.3-0.7-0.7-0.7-1.2C448.8,269.1,449.8,268.3,451.1,268.3 M451.1,267.8c-1.6,0-2.8,1-2.8,2.4c0,0.7,0.3,1.3,0.9,1.7
				c0,0,0.1,0.1,0.1,0.1h-0.7h-0.6l0.1,0.6c0.2,1.6,1.3,2.5,3.2,2.5c1.8,0,3-1,3-2.4c0-0.7-0.3-1.3-0.7-1.6
				c-0.1-0.1-0.2-0.1-0.3-0.2h0.4h0.6l-0.1-0.6C454,268.7,452.8,267.8,451.1,267.8L451.1,267.8z M450.6,270.1
				c0.1-0.1,0.2-0.1,0.5-0.1c0.5,0,0.6,0.1,0.7,0.4c0,0,0,0,0,0C451.1,270.2,450.8,270.1,450.6,270.1L450.6,270.1z M451.3,272.9
				c-0.7,0-0.8-0.3-0.8-0.5l0,0c0.3,0.1,0.5,0.1,0.8,0.2c0.4,0.1,0.5,0.1,0.6,0.1C451.9,272.8,451.6,272.9,451.3,272.9L451.3,272.9z
				"/>
		</g>
		<g>
			<path d="M457.6,274.7c-1.9,0-3.2-1.4-3.2-3.3c0-2,1.3-3.3,3.1-3.3c1.9,0,3.1,1.4,3.2,3.7l0,0.3h-4.2c0.1,0.7,0.5,1.1,1.1,1.1
				c0.5,0,0.8-0.2,1-0.6l0.1-0.1h2l-0.1,0.3C460.2,273.9,459,274.7,457.6,274.7z M458.6,270.5c-0.1-0.6-0.5-0.8-1.1-0.8
				c-0.6,0-0.9,0.4-1,0.8H458.6z"/>
			<path class="st10" d="M457.4,268.3c1.8,0,2.9,1.3,2.9,3.4h-4.3c0.1,1,0.6,1.6,1.4,1.6c0.6,0,1-0.3,1.3-0.7h1.5
				c-0.3,1.2-1.4,1.9-2.7,1.9c-1.7,0-3-1.3-3-3.1C454.6,269.6,455.8,268.3,457.4,268.3 M456.1,270.8h2.7c-0.1-0.9-0.6-1.3-1.4-1.3
				C456.7,269.5,456.3,269.9,456.1,270.8 M457.4,267.8c-2,0-3.3,1.5-3.3,3.6c0,2.1,1.5,3.6,3.5,3.6c1.6,0,2.8-0.9,3.2-2.3l0.2-0.6
				h-0.1l0-0.3C460.8,269.3,459.5,267.8,457.4,267.8L457.4,267.8z M456.8,270.3c0.2-0.3,0.5-0.3,0.7-0.3c0.2,0,0.5,0,0.7,0.3H456.8
				L456.8,270.3z M456.7,272.3h1.7l0,0.1c-0.2,0.3-0.4,0.5-0.8,0.5C457.4,272.8,456.9,272.8,456.7,272.3L456.7,272.3z"/>
		</g>
	</g>
	<g>
		<g>
			<path class="st2" d="M294.4,151.1l3.2-6.4l1.3,0.1l-0.6,8l-1-0.1l0.5-6.3l-3,6.1l-0.9-0.1l-1.9-6.5l-0.5,6.3l-1-0.1l0.6-8
				l1.3,0.1L294.4,151.1z"/>
			<path class="st2" d="M301,150.3c0,1.3,0.6,2.1,1.7,2.2c0.8,0.1,1.3-0.3,1.6-1l0.9,0.1c-0.5,1.2-1.3,1.8-2.6,1.7
				c-1.7-0.1-2.7-1.4-2.5-3.2c0.1-1.8,1.3-3,2.9-2.8c1.1,0.1,2,0.8,2.3,1.8c0.1,0.4,0.2,0.9,0.1,1.7L301,150.3z M304.6,149.9
				c0-1.1-0.6-1.8-1.6-1.9c-1-0.1-1.7,0.5-1.9,1.6L304.6,149.9z"/>
			<path class="st2" d="M309.4,147.9l-0.1,0.8l-1.1-0.1l-0.3,3.5c-0.1,0.6,0.1,0.8,0.5,0.8c0.1,0,0.2,0,0.4,0l-0.1,0.8
				c-0.3,0-0.4,0.1-0.6,0c-0.5,0-0.9-0.2-1.1-0.5c-0.1-0.2-0.2-0.5-0.1-1l0.3-3.8l-0.8-0.1l0.1-0.8l0.8,0.1l0.1-1.8l0.9,0.1
				l-0.1,1.8L309.4,147.9z"/>
			<path class="st2" d="M311.4,149.1c0.7-0.8,1.2-1.1,1.8-1c0.1,0,0.2,0,0.5,0.1l-0.1,0.9c-0.2-0.1-0.3-0.1-0.5-0.1
				c-0.6,0-1.2,0.3-1.5,0.8c-0.2,0.4-0.3,0.6-0.4,1.4l-0.2,2.7l-1-0.1l0.5-5.7l0.9,0.1L311.4,149.1z"/>
			<path class="st2" d="M319.4,151.6c-0.1,1.8-1.3,2.9-3,2.8c-1.6-0.1-2.7-1.4-2.5-3.2c0.1-1.8,1.3-2.9,3-2.8
				C318.6,148.5,319.6,149.8,319.4,151.6z M314.9,151.3c-0.1,1.3,0.5,2.3,1.6,2.4c1.1,0.1,1.9-0.8,2-2.1c0.1-1.3-0.5-2.3-1.6-2.4
				C315.8,149.1,315,149.9,314.9,151.3z"/>
			<path class="st2" d="M320.5,156.5l0.6-7.6l0.9,0.1l-0.1,0.8c0.6-0.6,1.2-0.8,2-0.8c1.4,0.1,2.3,1.4,2.2,3.2
				c-0.1,1.8-1.2,2.9-2.7,2.8c-0.8-0.1-1.3-0.4-1.8-1.1l-0.2,2.7L320.5,156.5z M322.3,150.3c-0.3,0.3-0.4,0.8-0.5,1.4
				c-0.1,0.8,0,1.3,0.3,1.7c0.3,0.4,0.7,0.7,1.2,0.7c1,0.1,1.7-0.7,1.8-2.1c0.1-1.4-0.4-2.3-1.4-2.4
				C323.2,149.7,322.7,149.9,322.3,150.3z"/>
			<path class="st2" d="M332.8,152.7c-0.1,1.8-1.3,2.9-3,2.8c-1.6-0.1-2.7-1.4-2.5-3.2c0.1-1.8,1.3-2.9,3-2.8
				C331.9,149.6,332.9,150.9,332.8,152.7z M328.2,152.3c-0.1,1.3,0.5,2.3,1.6,2.4s1.9-0.8,2-2.1s-0.5-2.3-1.6-2.4
				C329.1,150.1,328.3,151,328.2,152.3z"/>
			<path class="st2" d="M335,155.7l-0.9-0.1l0.6-8l0.9,0.1L335,155.7z"/>
			<path class="st2" d="M337.6,156l-0.9-0.1l0.5-5.7l0.9,0.1L337.6,156z M338.2,149.1l-0.9-0.1l0.1-1.1l0.9,0.1L338.2,149.1z"/>
			<path class="st2" d="M342,150.6l-0.1,0.8l-1.1-0.1l-0.3,3.5c-0.1,0.6,0.1,0.8,0.5,0.8c0.1,0,0.2,0,0.4,0l-0.1,0.8
				c-0.3,0-0.4,0.1-0.6,0c-0.5,0-0.9-0.2-1.1-0.5c-0.1-0.2-0.2-0.5-0.1-1l0.3-3.8l-0.8-0.1l0.1-0.8l0.8,0.1l0.1-1.8l0.9,0.1
				l-0.1,1.8L342,150.6z"/>
			<path class="st2" d="M347.7,156.8c-0.2,0-0.3,0-0.5,0c-0.4,0-0.7-0.2-0.8-0.5c0-0.1-0.1-0.2,0-0.5c-0.5,0.6-1.2,0.9-2.1,0.8
				c-1.2-0.1-1.9-0.8-1.8-1.7c0-0.6,0.4-1.1,0.9-1.3c0.4-0.2,0.6-0.3,2.3-0.4c0.6,0,0.8-0.2,0.8-0.6c0.1-0.7-0.3-1-1.1-1.1
				c-0.7-0.1-1.2,0.1-1.4,0.5c-0.1,0.1-0.1,0.3-0.2,0.6l-0.9-0.1c0.1-0.6,0.2-0.8,0.4-1.1c0.4-0.5,1.2-0.7,2.1-0.6
				c0.8,0.1,1.5,0.4,1.8,0.8c0.2,0.3,0.2,0.6,0.2,1.1l-0.2,2.7c-0.1,0.6,0,0.8,0.4,0.8c0.1,0,0.1,0,0.2,0L347.7,156.8z M346.4,153.6
				c-0.3,0.1-0.5,0.2-1.1,0.2c-1,0.1-1.3,0.2-1.6,0.4c-0.2,0.1-0.3,0.4-0.3,0.6c0,0.6,0.4,1,1.1,1c1,0.1,1.8-0.4,1.8-1.3
				L346.4,153.6z"/>
			<path class="st2" d="M350.2,152.1c0.5-0.6,1.2-0.9,2-0.8c1.1,0.1,1.8,0.9,1.7,2.1l-0.3,3.9l-0.9-0.1l0.3-3.6c0-0.5,0-0.8-0.1-1
				c-0.2-0.3-0.5-0.5-1-0.6c-0.7-0.1-1.3,0.3-1.5,0.8c-0.1,0.2-0.2,0.4-0.2,0.9l-0.3,3.3l-0.9-0.1l0.5-5.7l0.9,0.1L350.2,152.1z"/>
			<path class="st2" d="M358.8,157.7l-1.1-0.1l3.6-7.7l1.2,0.1l2.3,8.2l-1.1-0.1l-0.6-2.5l-3.1-0.2L358.8,157.7z M362.7,154.7
				l-1-3.8l-1.6,3.6L362.7,154.7z"/>
			<path class="st2" d="M367.4,157.4l2-4.6l1,0.1l-2.5,5.5l-1.1-0.1l-1.5-5.9l1,0.1L367.4,157.4z"/>
			<path class="st2" d="M371.5,156.1c0,1.3,0.6,2.1,1.7,2.2c0.8,0.1,1.3-0.3,1.6-1l0.9,0.1c-0.5,1.2-1.3,1.8-2.6,1.7
				c-1.7-0.1-2.7-1.4-2.5-3.2c0.1-1.8,1.3-3,2.9-2.8c1.1,0.1,2,0.8,2.3,1.8c0.1,0.4,0.2,0.9,0.1,1.7L371.5,156.1z M375.1,155.7
				c0-1.1-0.6-1.8-1.6-1.9c-1-0.1-1.7,0.5-1.9,1.6L375.1,155.7z"/>
		</g>
	</g>
	<g>
		<g>
			<path class="st2" d="M676.9,456.6l3.4,2.6l-0.4,0.5l-1-0.4c0.3,1,0.1,1.9-0.6,2.8c-0.7,0.9-1.5,1.3-2.5,1.4c-1,0.1-2-0.2-2.9-1
				c-2.1-1.6-2.5-3.8-1-5.6c1.1-1.4,2.5-1.8,4-1.1l-0.6,0.8c-1-0.4-1.9-0.2-2.7,0.8c-1.1,1.4-0.7,3,0.9,4.2c1.6,1.2,3.2,1.1,4.1-0.2
				c1-1.2,0.8-2.7-0.5-3.7l0,0l-1.5,1.9l-0.7-0.5L676.9,456.6z"/>
			<path class="st2" d="M684.4,453.9c-0.1,0.2-0.1,0.3-0.2,0.4c-0.2,0.3-0.6,0.5-0.9,0.4c-0.1,0-0.2-0.1-0.5-0.2
				c0.3,0.8,0.1,1.5-0.4,2.3c-0.7,0.9-1.7,1.2-2.4,0.6c-0.5-0.4-0.7-0.9-0.6-1.5c0-0.5,0.1-0.6,0.9-2.2c0.3-0.5,0.3-0.8-0.1-1
				c-0.6-0.4-1-0.3-1.5,0.3c-0.4,0.5-0.5,1.1-0.4,1.4c0.1,0.2,0.2,0.3,0.4,0.5l-0.5,0.7c-0.4-0.4-0.6-0.6-0.7-1
				c-0.2-0.6,0-1.4,0.6-2.1c0.5-0.7,1.1-1.1,1.6-1.1c0.3,0,0.6,0.1,1.1,0.5l2.1,1.6c0.5,0.4,0.7,0.4,0.9,0.1c0,0,0.1-0.1,0.1-0.2
				L684.4,453.9z M681,453.3c-0.1,0.3-0.1,0.5-0.4,1c-0.4,0.9-0.5,1.2-0.5,1.6c0,0.2,0.1,0.5,0.3,0.6c0.4,0.3,1,0.2,1.4-0.4
				c0.6-0.8,0.6-1.7-0.1-2.2L681,453.3z"/>
			<path class="st2" d="M681.8,447.7l0.6,0.5l-0.7,0.9l2.8,2.1c0.5,0.4,0.7,0.4,1,0c0.1-0.1,0.1-0.2,0.2-0.4l0.6,0.5
				c-0.1,0.2-0.2,0.4-0.3,0.5c-0.3,0.4-0.7,0.6-1,0.6c-0.3,0-0.5-0.1-0.9-0.4l-3-2.3l-0.5,0.7l-0.6-0.5l0.5-0.7l-1.5-1.1l0.6-0.7
				l1.5,1.1L681.8,447.7z"/>
			<path class="st2" d="M685.3,448.2c1.1,0.7,2.1,0.6,2.8-0.3c0.5-0.6,0.5-1.2,0-1.9l0.6-0.8c0.8,1.1,0.8,2.1,0,3.1
				c-1,1.3-2.6,1.5-4.1,0.4c-1.5-1.1-1.8-2.7-0.8-4c0.7-0.9,1.7-1.3,2.7-1c0.5,0.1,0.9,0.3,1.5,0.8L685.3,448.2z M686.9,445
				c-0.9-0.6-1.9-0.5-2.5,0.3c-0.6,0.8-0.5,1.7,0.4,2.5L686.9,445z"/>
			<path class="st2" d="M689.9,440c-0.3-0.2-0.5-0.3-0.7-0.2c-0.3,0-0.7,0.3-1,0.7c-0.5,0.6-0.5,1.2-0.2,1.5
				c0.2,0.1,0.4,0.2,0.6,0.1c0.2-0.1,0.5-0.3,1.2-0.8c1.2-1,2-1.2,2.7-0.6c0.9,0.7,0.9,1.8,0,3c-1,1.3-2.1,1.6-3.3,0.8l0.6-0.7
				c0.7,0.5,1.5,0.3,2.1-0.5c0.5-0.7,0.6-1.4,0.1-1.7c-0.2-0.1-0.4-0.2-0.6-0.1c-0.3,0.1-0.4,0.2-1.4,1c-0.6,0.5-1,0.7-1.3,0.8
				c-0.4,0.1-0.8,0-1.1-0.2c-0.8-0.6-0.8-1.7,0.1-2.8c0.8-1.1,1.7-1.3,2.8-0.6L689.9,440z"/>
			<path class="st2" d="M696.6,437.7l-0.7,0.9l-4.6-7.2l0.7-0.9l8.1,2.5l-0.7,0.9l-2.4-0.8l-1.9,2.5L696.6,437.7z M696.3,432.8
				l-3.7-1.2l2.2,3.3L696.3,432.8z"/>
			<path class="st2" d="M701,430.4l-2.8-4.1l0.6-0.8l3.3,5.1l-0.7,0.9l-5.8-1.9l0.6-0.8L701,430.4z"/>
			<path class="st2" d="M702.1,426.1c1.1,0.7,2.1,0.6,2.8-0.3c0.5-0.6,0.5-1.2,0-1.9l0.6-0.8c0.8,1.1,0.8,2.1,0,3.1
				c-1,1.3-2.6,1.5-4.1,0.4c-1.5-1.1-1.8-2.7-0.8-4c0.7-0.9,1.7-1.3,2.7-1c0.5,0.1,0.9,0.3,1.5,0.8L702.1,426.1z M703.7,422.9
				c-0.9-0.6-1.9-0.5-2.5,0.3c-0.6,0.8-0.5,1.7,0.4,2.5L703.7,422.9z"/>
		</g>
	</g>
	<g>
		<g>
			<path class="st2" d="M786,319.1l1.4,3.5l-0.8,0.3l-1.4-3.5l-3.5,1.4l-0.4-0.9l7.4-3l2.1,5.1l-0.8,0.3l-1.7-4.2L786,319.1z"/>
			<path class="st2" d="M788.4,329.7c-1.7,0.7-3.2,0.1-3.8-1.4c-0.6-1.5,0.1-3,1.8-3.7c1.7-0.7,3.2-0.1,3.8,1.5
				C790.8,327.5,790.1,329,788.4,329.7z M786.7,325.4c-1.2,0.5-1.8,1.5-1.4,2.5c0.4,1,1.5,1.4,2.8,0.9c1.2-0.5,1.8-1.5,1.4-2.5
				C789.1,325.3,788,324.9,786.7,325.4z"/>
			<path class="st2" d="M791.1,331.2c1,0.2,1.5,0.6,1.7,1.2c0,0.1,0.1,0.2,0.1,0.5l-0.8,0.3c0-0.2-0.1-0.3-0.1-0.5
				c-0.2-0.5-0.8-1-1.4-1c-0.4,0-0.7,0-1.4,0.3l-2.5,1l-0.4-0.9l5.3-2.1l0.3,0.9L791.1,331.2z"/>
			<path class="st2" d="M790.5,335.4c-1.2,0.6-1.6,1.5-1.2,2.5c0.3,0.7,0.8,1,1.6,1l0.4,0.9c-1.3,0.1-2.2-0.4-2.7-1.6
				c-0.6-1.6,0-3,1.7-3.7c1.7-0.7,3.2-0.1,3.8,1.4c0.4,1,0.2,2.1-0.6,2.9c-0.3,0.3-0.7,0.6-1.4,0.9L790.5,335.4z M792.4,338.4
				c1-0.5,1.4-1.4,1-2.3c-0.4-0.9-1.2-1.3-2.3-1L792.4,338.4z"/>
			<path class="st2" d="M795.2,343.5c0.3-0.2,0.5-0.3,0.6-0.5c0.1-0.3,0.1-0.7-0.1-1.2c-0.3-0.7-0.8-1.1-1.2-0.9
				c-0.2,0.1-0.3,0.3-0.4,0.5c0,0.2,0,0.5,0.1,1.4c0.2,1.6,0,2.3-0.8,2.6c-1,0.4-2-0.2-2.5-1.5c-0.6-1.5-0.2-2.6,1-3.2l0.3,0.9
				c-0.8,0.4-1,1.1-0.6,2.1c0.3,0.8,0.9,1.2,1.4,1c0.2-0.1,0.4-0.3,0.4-0.5c0.1-0.3,0.1-0.4-0.1-1.7c-0.1-0.7-0.1-1.2,0-1.5
				c0.1-0.4,0.4-0.7,0.8-0.8c0.9-0.4,1.9,0.2,2.4,1.5c0.5,1.2,0.2,2.1-0.9,2.8L795.2,343.5z"/>
			<path class="st2" d="M798.6,347.2l-0.7,0.3l-0.4-1.1l-3.2,1.3c-0.6,0.2-0.7,0.4-0.5,0.8c0,0.1,0.1,0.2,0.2,0.3l-0.7,0.3
				c-0.2-0.2-0.2-0.3-0.3-0.5c-0.2-0.4-0.2-0.9-0.1-1.2c0.1-0.2,0.3-0.4,0.8-0.5l3.5-1.4l-0.3-0.8l0.7-0.3l0.3,0.8l1.7-0.7l0.3,0.9
				l-1.7,0.7L798.6,347.2z"/>
			<path class="st2" d="M795,353.7l-0.4-1.1l8.5-0.3l0.4,1.1l-6.3,5.7l-0.4-1.1l1.9-1.7l-1.2-2.9L795,353.7z M799.4,355.9l3-2.6
				l-3.9,0.2L799.4,355.9z"/>
			<path class="st2" d="M799.1,361.2l5-0.3l0.4,0.9l-6.1,0.3l-0.4-1l4.6-4l0.4,0.9L799.1,361.2z"/>
			<path class="st2" d="M802.1,364.4c-1.2,0.6-1.6,1.5-1.2,2.5c0.3,0.7,0.8,1,1.6,1l0.4,0.9c-1.3,0.1-2.2-0.4-2.7-1.6
				c-0.6-1.6,0-3,1.7-3.7c1.7-0.7,3.2-0.1,3.8,1.4c0.4,1,0.2,2.1-0.6,2.9c-0.3,0.3-0.7,0.6-1.4,0.9L802.1,364.4z M804.1,367.4
				c1-0.5,1.4-1.4,1-2.3c-0.4-0.9-1.2-1.3-2.3-1L804.1,367.4z"/>
		</g>
	</g>
	<g>
		<g>
			<path class="st2" d="M196.6,436.6l3.3-1.7l0.4,0.8l-3.3,1.7l1.7,3.3l-0.9,0.5l-3.7-7.1l4.9-2.6l0.4,0.8l-4,2.1L196.6,436.6z"/>
			<path class="st2" d="M204.6,437.6l-0.8,0.4l-3.7-7.1l0.8-0.4L204.6,437.6z"/>
			<path class="st2" d="M210.3,434.6l-0.8,0.4l-0.3-0.7c-0.1,0.8-0.5,1.3-1.2,1.6c-0.8,0.4-1.5,0.4-2.1-0.1c-0.2-0.2-0.4-0.4-0.7-1
				l-1.7-3.3l0.8-0.4l1.7,3.3c0.2,0.4,0.4,0.6,0.6,0.7c0.4,0.2,0.8,0.2,1.2,0c0.4-0.2,0.8-0.6,0.9-1c0.1-0.4,0-0.8-0.3-1.4l-1.5-2.9
				l0.8-0.4L210.3,434.6z"/>
			<path class="st2" d="M213,428.7c-0.2-0.3-0.3-0.4-0.6-0.5c-0.3-0.1-0.7,0-1.2,0.2c-0.7,0.4-1,0.9-0.8,1.3
				c0.1,0.2,0.3,0.3,0.5,0.3c0.2,0,0.5,0,1.4-0.3c1.5-0.4,2.3-0.2,2.7,0.6c0.5,1,0,2-1.3,2.7c-1.4,0.7-2.6,0.5-3.3-0.7l0.8-0.4
				c0.5,0.8,1.2,0.9,2.1,0.4c0.8-0.4,1.1-1,0.8-1.5c-0.1-0.2-0.3-0.4-0.5-0.4c-0.3,0-0.4,0-1.7,0.3c-0.7,0.2-1.2,0.2-1.5,0.2
				c-0.4-0.1-0.7-0.3-0.9-0.7c-0.5-0.9,0-1.9,1.3-2.5c1.2-0.6,2.1-0.4,2.8,0.6L213,428.7z"/>
			<path class="st2" d="M215.6,426.4c0.1-0.8,0.5-1.4,1.2-1.8c0.7-0.4,1.4-0.3,2,0.1c0.3,0.2,0.4,0.4,0.7,1l1.7,3.3l-0.8,0.4
				l-1.6-3.1c-0.3-0.5-0.4-0.7-0.6-0.8c-0.4-0.3-0.9-0.3-1.3-0.1c-0.4,0.2-0.8,0.7-0.8,1.1c-0.1,0.5,0,0.8,0.5,1.6l1.3,2.5l-0.8,0.4
				l-3.7-7.1l0.8-0.4L215.6,426.4z"/>
			<path class="st2" d="M220.4,421.6l-0.8,0.4l-0.5-1l0.8-0.4L220.4,421.6z M223.6,427.7l-0.8,0.4l-2.6-5.1l0.8-0.4L223.6,427.7z"/>
			<path class="st2" d="M223.7,422.1c0.1-0.8,0.5-1.4,1.3-1.8c1-0.5,2-0.2,2.5,0.9l1.8,3.5l-0.8,0.4l-1.7-3.2
				c-0.2-0.5-0.4-0.7-0.7-0.8c-0.3-0.2-0.7-0.2-1.1,0c-0.6,0.3-0.9,0.9-0.9,1.5c0,0.2,0.1,0.4,0.3,0.8l1.5,2.9l-0.8,0.4l-2.6-5.1
				l0.8-0.4L223.7,422.1z"/>
			<path class="st2" d="M234.7,420.8l0.2,0.4c0.5,0.9,0.6,1.4,0.5,1.9c-0.1,0.6-0.6,1.1-1.5,1.6c-1.3,0.7-2.2,0.6-2.7-0.3l0.8-0.4
				c0.3,0.5,0.8,0.5,1.6,0c0.7-0.4,1-0.8,1-1.3c0-0.3-0.1-0.4-0.3-0.9l-0.3-0.5c-0.2,0.8-0.5,1.2-1.1,1.5c-0.6,0.3-1.3,0.4-1.9,0.2
				c-0.7-0.2-1.2-0.7-1.6-1.5c-0.8-1.6-0.5-3.1,0.9-3.7c0.6-0.3,1.2-0.3,1.9,0l-0.3-0.6l0.8-0.4L234.7,420.8z M230,421
				c0.6,1.2,1.5,1.6,2.5,1.1c0.9-0.5,1.1-1.4,0.5-2.6c-0.4-0.7-0.7-1.1-1.2-1.2c-0.4-0.1-0.9-0.1-1.3,0.1
				C229.7,418.8,229.5,419.8,230,421z"/>
			<path class="st2" d="M239.8,419.3l-1,0.5l-1.1-8.5l1-0.5l6.3,5.7l-1,0.5l-1.9-1.8l-2.7,1.4L239.8,419.3z M241.5,414.7l-2.8-2.7
				l0.6,3.9L241.5,414.7z"/>
			<path class="st2" d="M246.9,414.5l-0.8-4.9l0.9-0.5l0.8,6l-1,0.5l-4.4-4.1l0.9-0.5L246.9,414.5z"/>
			<path class="st2" d="M249.7,411.1c0.7,1.1,1.7,1.4,2.6,0.9c0.7-0.4,0.9-0.9,0.8-1.7l0.8-0.4c0.3,1.3-0.2,2.2-1.4,2.8
				c-1.5,0.8-3,0.2-3.8-1.4c-0.8-1.6-0.5-3.2,1-3.9c1-0.5,2.1-0.4,2.9,0.3c0.4,0.3,0.6,0.7,1,1.3L249.7,411.1z M252.5,408.9
				c-0.6-0.9-1.5-1.2-2.4-0.8c-0.9,0.4-1.1,1.3-0.7,2.4L252.5,408.9z"/>
		</g>
	</g>
	<g>
		<g>
			<path class="st2" d="M133.3,260.7l7.2,0.4l0.4,1.2l-7.6,2.5l-0.3-1l6-2l-6.8-0.3l-0.3-0.8l5.2-4.3l-6,2l-0.3-1l7.6-2.5l0.4,1.2
				L133.3,260.7z"/>
			<path class="st2" d="M138.3,270.7c-1.7,0.6-3.2-0.1-3.7-1.7c-0.5-1.6,0.3-3,2-3.6c1.7-0.6,3.2,0.1,3.8,1.7
				C140.8,268.7,140,270.1,138.3,270.7z M136.8,266.3c-1.3,0.4-1.9,1.4-1.6,2.4c0.3,1,1.4,1.4,2.7,1c1.3-0.4,1.9-1.4,1.6-2.4
				C139.2,266.3,138.1,265.9,136.8,266.3z"/>
			<path class="st2" d="M140.8,272.4c1,0.3,1.4,0.7,1.6,1.3c0,0.1,0.1,0.2,0.1,0.5l-0.8,0.3c0-0.2,0-0.3-0.1-0.5
				c-0.2-0.5-0.7-1-1.3-1.1c-0.4-0.1-0.7,0-1.4,0.2l-2.6,0.9L136,273l5.4-1.8l0.3,0.9L140.8,272.4z"/>
			<path class="st2" d="M139.8,281l-0.4,0.1c-1,0.3-1.5,0.4-2,0.2c-0.6-0.2-1-0.8-1.3-1.8c-0.5-1.4-0.2-2.2,0.7-2.6l0.3,0.8
				c-0.5,0.2-0.6,0.7-0.3,1.6c0.3,0.8,0.6,1.1,1.1,1.2c0.3,0,0.4,0,0.9-0.2l0.6-0.2c-0.8-0.4-1.1-0.7-1.3-1.3
				c-0.2-0.6-0.2-1.3,0.1-1.9c0.3-0.6,0.9-1.1,1.8-1.4c1.7-0.6,3.1,0,3.6,1.4c0.2,0.7,0.1,1.2-0.3,1.9l0.7-0.2l0.3,0.9L139.8,281z
				 M140.3,276.4c-1.3,0.4-1.8,1.3-1.5,2.3c0.3,1,1.2,1.3,2.5,0.9c0.8-0.3,1.2-0.5,1.4-1c0.2-0.4,0.2-0.9,0.1-1.3
				C142.6,276.4,141.5,276,140.3,276.4z"/>
			<path class="st2" d="M140.9,287.7c-0.1-0.2-0.2-0.3-0.2-0.5c-0.1-0.4-0.1-0.8,0.2-0.9c0.1-0.1,0.2-0.1,0.5-0.2
				c-0.8-0.2-1.3-0.8-1.6-1.6c-0.4-1.1,0-2,0.9-2.3c0.6-0.2,1.1-0.1,1.6,0.3c0.4,0.3,0.5,0.5,1.3,2c0.3,0.5,0.5,0.7,0.9,0.5
				c0.7-0.2,0.8-0.7,0.6-1.5c-0.2-0.6-0.6-1.1-1-1.1c-0.2,0-0.3,0-0.6,0.1l-0.3-0.8c0.5-0.2,0.8-0.2,1.2-0.1
				c0.6,0.2,1.1,0.8,1.4,1.7c0.3,0.8,0.2,1.5,0,1.9c-0.2,0.3-0.4,0.5-1,0.6l-2.6,0.9c-0.6,0.2-0.7,0.3-0.6,0.7c0,0.1,0,0.1,0.1,0.2
				L140.9,287.7z M143.3,285.3c-0.2-0.2-0.3-0.4-0.6-0.9c-0.5-0.8-0.7-1.1-1-1.3c-0.2-0.1-0.5-0.1-0.7-0.1c-0.5,0.2-0.7,0.7-0.5,1.4
				c0.3,1,1.1,1.5,1.9,1.2L143.3,285.3z"/>
			<path class="st2" d="M146.2,288.2c0.8,0.2,1.3,0.7,1.6,1.5c0.4,1.1-0.1,2-1.3,2.4l-3.7,1.2l-0.3-0.9l3.4-1.1
				c0.5-0.2,0.7-0.3,0.9-0.5c0.2-0.3,0.3-0.7,0.1-1.1c-0.2-0.6-0.7-1.1-1.4-1.1c-0.2,0-0.4,0-0.9,0.2l-3.1,1l-0.3-0.9l5.4-1.8
				l0.3,0.9L146.2,288.2z"/>
			<path class="st2" d="M144.4,298.3l-0.4-1.1l8.5,0.3l0.4,1.1l-6.7,5.3l-0.4-1.1l2-1.6l-1-2.9L144.4,298.3z M148.7,300.7l3.1-2.4
				l-3.9,0L148.7,300.7z"/>
			<path class="st2" d="M148,306l5,0l0.3,0.9l-6.1-0.1l-0.3-1l4.8-3.7l0.3,0.9L148,306z"/>
			<path class="st2" d="M150.9,309.3c-1.2,0.5-1.7,1.4-1.3,2.5c0.2,0.7,0.7,1.1,1.5,1.1l0.3,0.9c-1.3,0-2.2-0.5-2.6-1.8
				c-0.5-1.6,0.2-3,2-3.6c1.7-0.6,3.2,0.1,3.7,1.6c0.4,1.1,0.1,2.1-0.7,2.8c-0.4,0.3-0.8,0.5-1.5,0.8L150.9,309.3z M152.7,312.5
				c1-0.4,1.4-1.3,1.1-2.2c-0.3-0.9-1.1-1.3-2.2-1.1L152.7,312.5z"/>
		</g>
	</g>
	<g>
		<rect x="368.6" y="386.5" width="9.3" height="8.1"/>
		<g>
			<g>
				<path class="st10" d="M370.4,388.5h1.3l1.6,3l1.6-3h1.3v4.1h-1v-2.9l-1.5,2.9h-0.9l-1.5-2.9v2.9h-0.9V388.5z"/>
			</g>
		</g>
	</g>
	<g>
		<g>
			<path d="M383.9,468v-8.5h3c1.1,0,1.6,0.1,2.1,0.3c1.3,0.6,2.1,2.1,2.1,4c0,2-0.9,3.5-2.4,4c-0.5,0.1-0.9,0.2-1.7,0.2H383.9z
				 M387,466.3c0.8,0,1.1-0.1,1.4-0.3c0.5-0.3,0.7-1,0.7-2c0-1.3-0.4-2.1-1.1-2.5c-0.3-0.2-0.6-0.2-1.3-0.2H386v5H387z"/>
			<path class="st10" d="M386.9,459.8c1.1,0,1.5,0.1,2,0.3c1.2,0.6,2,2,2,3.8c0,1.9-0.8,3.3-2.2,3.7c-0.5,0.1-0.9,0.2-1.7,0.2h-2.9
				v-8H386.9 M385.8,466.5h1.3c0.8,0,1.1-0.1,1.5-0.4c0.6-0.4,0.8-1.1,0.8-2.2c0-1.4-0.4-2.3-1.3-2.7c-0.4-0.2-0.6-0.2-1.4-0.2h-0.9
				V466.5 M386.9,459.3h-2.7h-0.5v0.5v8v0.5h0.5h2.9c0.8,0,1.3,0,1.8-0.2c1.6-0.5,2.6-2.1,2.6-4.2c0-2-0.9-3.6-2.3-4.2
				C388.5,459.3,388,459.3,386.9,459.3L386.9,459.3z M386.3,461.5h0.4c0.8,0,0.9,0,1.2,0.2c0.6,0.3,1,1.1,1,2.2
				c0,0.9-0.2,1.5-0.6,1.8c-0.3,0.2-0.5,0.3-1.2,0.3h-0.8V461.5L386.3,461.5z"/>
		</g>
		<g>
			<path d="M394.9,468.2c-1.9,0-3.2-1.4-3.2-3.3c0-2,1.3-3.3,3.1-3.3c1.9,0,3.1,1.4,3.2,3.7l0,0.3h-4.2c0.1,0.7,0.5,1.1,1.1,1.1
				c0.5,0,0.8-0.2,1-0.6l0.1-0.1h2l-0.1,0.3C397.5,467.4,396.3,468.2,394.9,468.2z M395.9,464c-0.1-0.6-0.5-0.8-1.1-0.8
				c-0.6,0-0.9,0.4-1,0.8H395.9z"/>
			<path class="st10" d="M394.8,461.8c1.8,0,2.9,1.3,2.9,3.4h-4.3c0.1,1,0.6,1.6,1.4,1.6c0.6,0,1-0.3,1.3-0.7h1.5
				c-0.3,1.2-1.4,1.9-2.7,1.9c-1.7,0-3-1.3-3-3.1C391.9,463,393.1,461.8,394.8,461.8 M393.5,464.2h2.7c-0.1-0.9-0.6-1.3-1.4-1.3
				C394.1,462.9,393.6,463.4,393.5,464.2 M394.8,461.3c-2,0-3.3,1.5-3.3,3.6c0,2.1,1.5,3.6,3.5,3.6c1.6,0,2.8-0.9,3.2-2.3l0.2-0.6
				h-0.1l0-0.3C398.2,462.8,396.9,461.3,394.8,461.3L394.8,461.3z M394.2,463.7c0.2-0.3,0.5-0.3,0.7-0.3c0.2,0,0.5,0,0.7,0.3H394.2
				L394.2,463.7z M394.1,465.7h1.7l0,0.1c-0.2,0.3-0.4,0.5-0.8,0.5C394.7,466.3,394.3,466.3,394.1,465.7L394.1,465.7z"/>
		</g>
		<g>
			<polygon points="403.9,468 401.5,464.4 400.9,465 400.9,468 398.8,468 398.8,459.5 400.9,459.5 400.9,462.5 403.6,459.5 
				406.3,459.5 402.9,463 406.4,468 			"/>
			<path class="st10" d="M405.7,459.8l-3.1,3.2l3.4,4.8h-1.9l-2.6-3.8l-0.9,0.9v2.8H399v-8h1.6v3.4l3.1-3.4H405.7 M406.9,459.3h-1.2
				h-2h-0.2l-0.1,0.2l-2.2,2.4v-2.1v-0.5h-0.5H399h-0.5v0.5v8v0.5h0.5h1.6h0.5v-0.5v-2.6l0.3-0.4l2.2,3.3l0.1,0.2h0.3h1.9h1
				l-0.6-0.8l-3.1-4.4l2.8-2.9L406.9,459.3L406.9,459.3z"/>
		</g>
		<g>
			<path d="M408.4,468.2c-1.3,0-2.4-0.9-2.4-2c0-0.7,0.5-1.4,1.2-1.8c0.5-0.2,1.1-0.4,2-0.5c0.7-0.1,0.7-0.2,0.7-0.3
				c0-0.3-0.3-0.5-0.8-0.5c-0.4,0-0.9,0.1-0.9,0.6l0,0.2h-1.9l0-0.3c0.1-0.6,0.2-0.9,0.5-1.3c0.5-0.6,1.3-0.8,2.3-0.8
				c1.6,0,2.3,0.6,2.6,1.2c0.2,0.3,0.2,0.7,0.2,1.4v2.4c0,0.7,0,0.8,0.2,1.1l0.2,0.4h-2l-0.1-0.4C409.6,468,409,468.2,408.4,468.2z
				 M410,465.1c-0.2,0.1-0.3,0.1-0.6,0.2c-1.3,0.3-1.4,0.5-1.4,0.8c0,0.3,0.4,0.5,0.8,0.5c0.4,0,0.7-0.1,1-0.3
				c0.2-0.1,0.3-0.3,0.3-0.7V465.1z"/>
			<path class="st10" d="M409.1,461.8c1.2,0,2,0.4,2.3,1c0.2,0.3,0.2,0.7,0.2,1.3v2.4c0,0.7,0,0.9,0.2,1.2h-1.4l-0.2-0.5
				c-0.6,0.5-1.2,0.7-1.9,0.7c-1.2,0-2.2-0.8-2.2-1.8c0-0.6,0.4-1.2,1.1-1.5c0.4-0.2,1-0.4,1.9-0.5c0.7-0.1,0.9-0.2,0.9-0.6
				c0-0.4-0.4-0.8-1.1-0.8c-0.7,0-1.1,0.3-1.2,0.9h-1.4c0.1-0.6,0.2-0.9,0.4-1.1C407.4,462,408.1,461.8,409.1,461.8 M408.7,466.8
				c0.4,0,0.8-0.1,1.1-0.3c0.3-0.2,0.4-0.4,0.4-0.9v-0.8c-0.3,0.2-0.4,0.2-0.9,0.3c-1.2,0.3-1.6,0.5-1.6,1
				C407.7,466.5,408.1,466.8,408.7,466.8 M409.1,461.3c-1.1,0-2,0.3-2.5,0.9c-0.3,0.4-0.5,0.8-0.5,1.4l-0.1,0.6h0.6h0.5
				c-0.9,0.4-1.3,1.1-1.3,2c0,1.3,1.2,2.3,2.7,2.3c0.6,0,1.1-0.1,1.6-0.4l0.1,0.3h0.4h1.4h0.8l-0.3-0.7c-0.1-0.3-0.1-0.4-0.1-1v-2.4
				c0-0.7-0.1-1.1-0.3-1.5C411.6,462,410.9,461.3,409.1,461.3L409.1,461.3z M408.4,463.8L408.4,463.8c0-0.2,0-0.5,0.7-0.5
				c0.3,0,0.6,0.1,0.6,0.3c0,0-0.2,0.1-0.5,0.1C408.9,463.7,408.7,463.7,408.4,463.8L408.4,463.8z M408.7,466.3
				c-0.3,0-0.5-0.1-0.5-0.2c0-0.1,0-0.2,1.2-0.5c0.1,0,0.2-0.1,0.3-0.1v0c0,0.4-0.1,0.4-0.2,0.5
				C409.4,466.2,409.1,466.3,408.7,466.3L408.7,466.3z"/>
		</g>
		<g>
			<rect x="412.9" y="459.5" width="2" height="8.5"/>
			<path class="st10" d="M414.6,459.8v8h-1.5v-8H414.6 M415.1,459.3h-0.5h-1.5h-0.5v0.5v8v0.5h0.5h1.5h0.5v-0.5v-8V459.3
				L415.1,459.3z"/>
		</g>
		<g>
			<path d="M419.2,468.2c-0.6,0-1-0.1-1.5-0.5v0.3h-2v-8.5h2v2.5c0.4-0.3,0.9-0.5,1.5-0.5c1.6,0,2.8,1.4,2.8,3.3
				C422.1,466.8,420.9,468.2,419.2,468.2z M418.9,463.2c-0.7,0-1.2,0.7-1.2,1.6c0,1,0.5,1.6,1.2,1.6c0.7,0,1.1-0.6,1.1-1.6
				C420.1,463.9,419.6,463.2,418.9,463.2z"/>
			<path class="st10" d="M417.5,459.8v2.8c0.4-0.5,1-0.8,1.7-0.8c1.5,0,2.6,1.3,2.6,3.1c0,1.8-1.1,3.1-2.6,3.1
				c-0.7,0-1.1-0.2-1.7-0.8v0.6h-1.5v-8H417.5 M418.9,466.8c0.8,0,1.4-0.7,1.4-1.9c0-1.1-0.6-1.9-1.4-1.9c-0.9,0-1.5,0.8-1.5,1.9
				S418,466.8,418.9,466.8 M418,459.3h-0.5h-1.5h-0.5v0.5v8v0.5h0.5h1.5h0.5v-0.1c0.4,0.2,0.7,0.3,1.2,0.3c1.8,0,3.1-1.5,3.1-3.6
				c0-2-1.3-3.6-3.1-3.6c-0.4,0-0.8,0.1-1.2,0.3v-1.8V459.3L418,459.3z M418.9,466.3c-0.7,0-1-0.7-1-1.4c0-0.6,0.2-1.4,1-1.4
				c0.7,0,0.9,0.7,0.9,1.4C419.8,465.5,419.6,466.3,418.9,466.3L418.9,466.3z"/>
		</g>
		<g>
			<path d="M430.7,468l-0.5-1.7h-2.6l-0.5,1.7h-2.2l3-8.5h2.1l2.9,8.5H430.7z M429.7,464.7l-0.8-2.5l-0.8,2.5H429.7z"/>
			<path class="st10" d="M429.8,459.8l2.7,8h-1.6l-0.5-1.7h-2.9l-0.5,1.7h-1.6l2.8-8H429.8 M427.8,464.9h2.2l-1.1-3.6L427.8,464.9
				 M430.2,459.3h-0.4h-1.8h-0.4l-0.1,0.3l-2.8,8l-0.2,0.7h0.7h1.6h0.4l0.1-0.3l0.4-1.4h2.2l0.4,1.4l0.1,0.3h0.4h1.6h0.7l-0.2-0.7
				l-2.7-8L430.2,459.3L430.2,459.3z M428.5,464.4l0.4-1.4l0.4,1.4H428.5L428.5,464.4z"/>
		</g>
		<g>
			<polygon points="434.4,468 432.2,461.7 434.3,461.7 435.3,465.2 436.3,461.7 438.3,461.7 436.2,468 			"/>
			<path class="st10" d="M438,461.9l-1.9,5.8h-1.5l-2-5.8h1.5l1.2,4.1l1.2-4.1H438 M438.7,461.4H438h-1.5h-0.4l-0.1,0.4l-0.7,2.5
				l-0.7-2.5l-0.1-0.4h-0.4h-1.5h-0.7l0.2,0.7l2,5.8l0.1,0.3h0.4h1.5h0.4l0.1-0.3l1.9-5.8L438.7,461.4L438.7,461.4z"/>
		</g>
		<g>
			<path d="M441.4,468.2c-1.9,0-3.2-1.4-3.2-3.3c0-2,1.3-3.3,3.1-3.3c1.9,0,3.1,1.4,3.2,3.7l0,0.3h-4.2c0.1,0.7,0.5,1.1,1.1,1.1
				c0.5,0,0.8-0.2,1-0.6l0.1-0.1h2l-0.1,0.3C444,467.4,442.8,468.2,441.4,468.2z M442.4,464c-0.1-0.6-0.5-0.8-1.1-0.8
				c-0.6,0-0.9,0.4-1,0.8H442.4z"/>
			<path class="st10" d="M441.3,461.8c1.8,0,2.9,1.3,2.9,3.4h-4.3c0.1,1,0.6,1.6,1.4,1.6c0.6,0,1-0.3,1.3-0.7h1.5
				c-0.3,1.2-1.4,1.9-2.7,1.9c-1.7,0-3-1.3-3-3.1C438.4,463,439.6,461.8,441.3,461.8 M439.9,464.2h2.7c-0.1-0.9-0.6-1.3-1.4-1.3
				C440.6,462.9,440.1,463.4,439.9,464.2 M441.3,461.3c-2,0-3.3,1.5-3.3,3.6c0,2.1,1.5,3.6,3.5,3.6c1.6,0,2.8-0.9,3.2-2.3l0.2-0.6
				h-0.1l0-0.3C444.6,462.8,443.3,461.3,441.3,461.3L441.3,461.3z M440.6,463.7c0.2-0.3,0.5-0.3,0.7-0.3c0.2,0,0.5,0,0.7,0.3H440.6
				L440.6,463.7z M440.5,465.7h1.7l0,0.1c-0.2,0.3-0.4,0.5-0.8,0.5C441.2,466.3,440.8,466.3,440.5,465.7L440.5,465.7z"/>
		</g>
	</g>
	<g>
		<rect x="449.7" y="460.4" width="9.3" height="8.1"/>
		<g>
			<g>
				<path class="st10" d="M451.5,462.4h1.3l1.6,3l1.6-3h1.3v4.1h-1v-2.9l-1.5,2.9h-0.9l-1.5-2.9v2.9h-0.9V462.4z"/>
			</g>
		</g>
	</g>
	<g>
		<polygon class="st10" points="344,266.7 344,269.9 345,269.9 345,273.3 346,273.3 346,269.8 346.8,269.9 346.8,266.7 345.9,266.7 
			345.9,268.8 344.9,268.8 344.9,266.7 		"/>
		<path class="st10" d="M349.9,266.9v6.8h-1v-2.4c0,0-0.8-0.5-0.8-2.5c0-1,0.5-1.7,0.9-2C349.4,266.6,349.9,266.9,349.9,266.9z"/>
	</g>
	<path class="st11" d="M437.7,169.7c0,4.6-8.4,16.2-8.4,16.2s-8.4-11.5-8.4-16.2c0-4.6,3.8-8.4,8.4-8.4
		C433.9,161.3,437.7,165.1,437.7,169.7z"/>
</g>
</svg>
