<?xml version="1.0" encoding="utf-8"?>
<!-- Generator: Adobe Illustrator 19.2.1, SVG Export Plug-In . SVG Version: 6.00 Build 0)  -->
<svg version="1.1" id="Layer_1" xmlns="http://www.w3.org/2000/svg" xmlns:xlink="http://www.w3.org/1999/xlink" x="0px" y="0px"
	 viewBox="0 0 864 500" style="enable-background:new 0 0 864 500;" xml:space="preserve">
<style type="text/css">
	.st0{display:none;}
	.st1{opacity:0.5;fill:#DCE4E2;enable-background:new    ;}
	.st2{fill:#77998F;}
	.st3{font-family:'NimbusSansDOT-Bold';}
	.st4{font-size:24px;}
	.st5{fill:#FAFAFA;}
	.st6{fill:#FAFAFA;stroke:#000000;stroke-width:3;stroke-miterlimit:10;}
	.st7{font-family:'NimbusSansDOT-Regu';}
	.st8{font-size:18px;}
</style>
<g id="Layer_1_1_" class="st0">
</g>
<g id="Layer_3" class="st0">
</g>
<polygon class="st1" points="492,239.8 535.7,183.3 571.1,185.4 617.7,222 584.3,265.8 613,289 590.8,317.5 "/>
<path class="st2" d="M869.1,203.3l-235.3-14l-112.1-10.6l66.2-56.6l0.1-0.1l51.3-56.6l86.8-63.9l-2.4-3.2l-87,64l-0.2,0.1
	l-51.4,56.7l-68.3,58.4l-1.3,0.6l-9.1-0.9l-88.7-6.7l-78-5.9l-154.1-12.8l430-150L614.3-2L93.7,179.7L31.9-0.6l-3.8,1.3L90,181
	l-90.6,31.6l1.3,3.8l90.6-31.6l53.8,156.9L169.8,463l-67.7,34.2l1.8,3.6l68-34.4l60.6,38.5l2.1-3.4L176,464.3l109.8-55.5l0.3-0.2
	l40.4-46.4L433,449.5l-37.6,49.3l3.2,2.4l37.5-49.2l61.6,50.6l2.5-3.1l-61.8-50.6l47.2-61.9l163.1,127.4l2.5-3.2L380.8,299.9
	l48.7-65.8l26.3-22.1l263.6,207.2l-59.6,78.6l3.2,2.4l59.6-78.6l104.3,81.9l0.6-0.8l-104.3-82l56-73.9l56.2,152.7l3.8-1.4L728.9,199
	l140,8.3L869.1,203.3z M506.2,181.3l1.8,0.2l-45.7,19.8l-9,7.5L409,173.9l8.5,0.7L506.2,181.3z M283.7,405.4l-110.3,55.7
	l-24.6-120.5L95,183.5l81.4-28.4l141.8,11.8l49.3,142.4L283.7,405.4z M435.4,446.3l-106.1-87l49-56.2l104.3,81.4L435.4,446.3z
	 M426.7,231.1l-0.2,0.2L376.4,299l-8.2,9.5l-49-141.5l20.3,1.7l67.7,5.1l45.3,35.6L426.7,231.1z M777.4,342.5L720,418.4L456.5,211.3
	l7.9-6.6l51.8-22.4l117.3,11l95.3,5.7l-4.7-1.3L777.4,342.5z"/>
<text transform="matrix(1 0 0 1 448.6711 182.3002)" class="st3 st4">63 Woodward Avenue</text>
<polygon class="st1" points="454.5,323.5 473,300.2 518,336.9 500.1,360.2 "/>
<polygon class="st1" points="300.5,491 334.7,516.7 368.6,470.6 335.2,445.7 "/>
<g>
	<rect x="116.7" y="389.7" width="12.7" height="11.1"/>
	<g>
		<g>
			<path class="st5" d="M119.2,392.4h1.8l2.2,4.1l2.2-4.1h1.8v5.6h-1.4v-4l-2.1,4h-1.2l-2.1-4v4h-1.2V392.4z"/>
		</g>
	</g>
</g>
<path class="st6" d="M437.7,169.7c0,4.6-8.4,16.2-8.4,16.2s-8.4-11.5-8.4-16.2c0-4.6,3.8-8.4,8.4-8.4
	C433.9,161.3,437.7,165.1,437.7,169.7z"/>
<text transform="matrix(0.6045 -0.7966 0.7966 0.6045 655.6111 487.0734)" class="st2 st7 st8">Gates Ave</text>
<text transform="matrix(0.3523 0.9359 -0.9359 0.3523 777.9829 310.0638)" class="st2 st7 st8">Forest Ave</text>
<text transform="matrix(0.7888 0.6146 -0.6146 0.7888 534.8525 296.8528)" class="st2 st7 st8">Woodward Ave</text>
<text transform="matrix(0.7888 0.6146 -0.6146 0.7888 482.6001 370.186)" class="st2 st7 st8">Cypress Ave</text>
<text transform="matrix(0.8977 -0.4406 0.4406 0.8977 179.8996 449.2947)" class="st2 st7 st8">Flushing Ave</text>
<text transform="matrix(0.3215 0.9469 -0.9469 0.3215 119.9221 228.8749)" class="st2 st7 st8">Morgan Ave</text>
<text transform="matrix(0.3215 0.9469 -0.9469 0.3215 311.6799 204.3993)" class="st2 st7 st8">Scott Ave</text>
<text transform="matrix(0.9966 8.271939e-02 -8.271939e-02 0.9966 255.1914 151.1447)" class="st2 st7 st8">Metropolitan Ave</text>
<text transform="matrix(1 0 0 1 18.73 399.6)" class="st7 st8">Morgan Ave</text>
<text transform="matrix(1 0 0 1 261.1914 394.4946)" class="st7 st8">Jefferson St</text>
<text transform="matrix(1 0 0 1 351.6914 473.0033)" class="st7 st8">DeKalb Ave</text>
<g>
	<rect x="361.5" y="384.1" width="12.7" height="11.1"/>
	<g>
		<g>
			<path class="st5" d="M364,386.9h1.8l2.2,4.1l2.2-4.1h1.8v5.6h-1.4v-4l-2.1,4h-1.2l-2.1-4v4H364V386.9z"/>
		</g>
	</g>
</g>
<g>
	<rect x="449.9" y="461.9" width="12.7" height="11.1"/>
	<g>
		<g>
			<path class="st5" d="M452.3,464.7h1.8l2.2,4.1l2.2-4.1h1.8v5.6h-1.4v-4l-2.1,4h-1.2l-2.1-4v4h-1.2V464.7z"/>
		</g>
	</g>
</g>
</svg>
